<?xml version="1.0" encoding="UTF-8" standalone="no"?>
<!-- Created with Inkscape (http://www.inkscape.org/) -->

<svg
   xmlns:dc="http://purl.org/dc/elements/1.1/"
   xmlns:cc="http://creativecommons.org/ns#"
   xmlns:rdf="http://www.w3.org/1999/02/22-rdf-syntax-ns#"
   xmlns:svg="http://www.w3.org/2000/svg"
   xmlns="http://www.w3.org/2000/svg"
   xmlns:sodipodi="http://sodipodi.sourceforge.net/DTD/sodipodi-0.dtd"
   xmlns:inkscape="http://www.inkscape.org/namespaces/inkscape"
   width="744.09448"
   height="1052.3622"
   id="svg2"
   version="1.1"
   inkscape:version="0.48.0 r9654"
   sodipodi:docname="led_cylinder.svg"
   style="display:inline">
  <defs
     id="defs4" />
  <sodipodi:namedview
     id="base"
     pagecolor="#ffffff"
     bordercolor="#666666"
     borderopacity="1.0"
     inkscape:pageopacity="0.0"
     inkscape:pageshadow="2"
     inkscape:zoom="22.4"
     inkscape:cx="232.01918"
     inkscape:cy="946.53745"
     inkscape:document-units="px"
     inkscape:current-layer="layer8"
     showgrid="true"
     units="mm"
     inkscape:snap-global="true"
     inkscape:window-width="1366"
     inkscape:window-height="724"
     inkscape:window-x="0"
     inkscape:window-y="25"
     inkscape:window-maximized="1">
    <inkscape:grid
       type="xygrid"
       id="grid2985"
       empspacing="2"
       visible="true"
       enabled="true"
       snapvisiblegridlinesonly="false"
       units="mm"
       spacingx="1mm"
       spacingy="1mm" />
  </sodipodi:namedview>
  <metadata
     id="metadata7">
    <rdf:RDF>
      <cc:Work
         rdf:about="">
        <dc:format>image/svg+xml</dc:format>
        <dc:type
           rdf:resource="http://purl.org/dc/dcmitype/StillImage" />
        <dc:title></dc:title>
      </cc:Work>
    </rdf:RDF>
  </metadata>
  <g
     inkscape:groupmode="layer"
     id="layer4"
     inkscape:label="base bottom"
     style="display:inline">
    <path
       sodipodi:type="arc"
       style="opacity:0.80392157;fill:#803300;fill-opacity:1;stroke:#000000;stroke-width:0.08939504;stroke-linejoin:round;stroke-miterlimit:4;stroke-opacity:1;stroke-dasharray:none;display:inline"
       id="path4030"
       sodipodi:cx="110.35714"
       sodipodi:cy="115.57647"
       sodipodi:rx="16.071428"
       sodipodi:ry="8.9285717"
       d="m 126.42857,115.57647 a 16.071428,8.9285717 0 1 1 -32.142859,0 16.071428,8.9285717 0 1 1 32.142859,0 z"
       transform="matrix(8.3377781,0,0,15.007999,-690.13334,-1492.2094)" />
  </g>
  <g
     inkscape:groupmode="layer"
     id="layer5"
     inkscape:label="base top"
     style="display:inline">
    <path
       style="opacity:0.80392157;fill:#803300;fill-opacity:1;stroke:#000000;stroke-width:0.99999994;stroke-linejoin:round;stroke-miterlimit:4;stroke-opacity:1;stroke-dasharray:none;display:inline"
       d="m 230,108.375 c -74.00616,0 -134,59.99385 -134,134 0,74.00615 59.99384,134 134,134 74.00616,0 134,-59.99385 134,-134 0,-74.00615 -59.99384,-134 -134,-134 z m -2.21875,48 c 0.73763,-0.0187 1.47662,0 2.21875,0 47.49649,0 86,38.50351 86,86 0,47.49649 -38.50351,86 -86,86 -47.49649,0 -86,-38.50351 -86,-86 0,-46.75435 37.31062,-84.82266 83.78125,-86 z"
       id="path4030-3"
       inkscape:connector-curvature="0" />
  </g>
  <g
     inkscape:groupmode="layer"
     id="layer8"
     inkscape:label="base level 2">
    <path
       style="opacity:0.80392157;fill:#803300;fill-opacity:1;stroke:#000000;stroke-width:0.99999994;stroke-linejoin:round;stroke-miterlimit:4;stroke-opacity:1;stroke-dasharray:none;display:inline"
       d="m 230.31496,109.8425 c -74.00616,0 -133.999995,59.99385 -133.999995,134 0,74.00615 59.993835,134 133.999995,134 74.00616,0 134,-59.99385 134,-134 0,-74.00615 -59.99384,-134 -134,-134 z m -2.21875,48 c 0.73763,-0.0187 1.47662,0 2.21875,0 47.49649,0 86,38.50351 86,86 0,47.49649 -38.50351,86 -86,86 -47.49649,0 -86,-38.50351 -86,-86 0,-46.75435 37.31062,-84.82266 83.78125,-86 z"
       id="path4030-3-7"
       inkscape:connector-curvature="0" />
  </g>
  <g
     inkscape:groupmode="layer"
     id="layer2"
     inkscape:label="radial guide"
     style="display:none">
    <g
       id="g3892"
       transform="translate(0,2.6171876e-6)">
      <path
         inkscape:connector-curvature="0"
         id="path3870"
         d="m 380,242.36218 -150,0 0,150"
         style="fill:none;stroke:#000000;stroke-width:1px;stroke-linecap:butt;stroke-linejoin:miter;stroke-opacity:1" />
      <g
         transform="translate(0,2.6171876e-6)"
         id="g3885">
        <path
           style="fill:none;stroke:#000000;stroke-width:1px;stroke-linecap:butt;stroke-linejoin:miter;stroke-opacity:1"
           d="m 340,132.36218 -110,110 115,115"
           id="path3876"
           inkscape:connector-curvature="0" />
        <g
           id="g3880"
           transform="translate(0,2.6171876e-6)">
          <path
             inkscape:connector-curvature="0"
             id="path3872"
             d="m 230,92.362183 0,149.999997"
             style="fill:none;stroke:#000000;stroke-width:1px;stroke-linecap:butt;stroke-linejoin:miter;stroke-opacity:1" />
          <path
             inkscape:connector-curvature="0"
             id="path3874"
             d="m 80,242.36218 150,0 -135,135"
             style="fill:none;stroke:#000000;stroke-width:1px;stroke-linecap:butt;stroke-linejoin:miter;stroke-opacity:1" />
          <path
             inkscape:connector-curvature="0"
             id="path3878"
             d="m 230,242.36218 -115,-115"
             style="fill:none;stroke:#000000;stroke-width:1px;stroke-linecap:butt;stroke-linejoin:miter;stroke-opacity:1" />
        </g>
      </g>
    </g>
    <g
       transform="matrix(0.92387953,-0.38268343,0.38268343,0.92387953,-75.240285,106.46591)"
       id="g3901">
      <path
         style="fill:none;stroke:#000000;stroke-width:1px;stroke-linecap:butt;stroke-linejoin:miter;stroke-opacity:1"
         d="m 380,242.36218 -150,0 0,150"
         id="path3903"
         inkscape:connector-curvature="0" />
      <g
         id="g3905"
         transform="translate(0,2.6171876e-6)">
        <path
           inkscape:connector-curvature="0"
           id="path3907"
           d="m 340,132.36218 -110,110 115,115"
           style="fill:none;stroke:#000000;stroke-width:1px;stroke-linecap:butt;stroke-linejoin:miter;stroke-opacity:1" />
        <g
           transform="translate(0,2.6171876e-6)"
           id="g3909">
          <path
             style="fill:none;stroke:#000000;stroke-width:1px;stroke-linecap:butt;stroke-linejoin:miter;stroke-opacity:1"
             d="m 230,92.362183 0,149.999997"
             id="path3911"
             inkscape:connector-curvature="0" />
          <path
             style="fill:none;stroke:#000000;stroke-width:1px;stroke-linecap:butt;stroke-linejoin:miter;stroke-opacity:1"
             d="m 80,242.36218 150,0 -135,135"
             id="path3913"
             inkscape:connector-curvature="0" />
          <path
             style="fill:none;stroke:#000000;stroke-width:1px;stroke-linecap:butt;stroke-linejoin:miter;stroke-opacity:1"
             d="m 230,242.36218 -115,-115"
             id="path3915"
             inkscape:connector-curvature="0" />
        </g>
      </g>
    </g>
  </g>
  <g
     inkscape:groupmode="layer"
     id="layer6"
     inkscape:label="ball alignment"
     style="display:none">
    <path
       sodipodi:type="arc"
       style="opacity:0.80392157;fill:#ececec;fill-opacity:1;stroke:#000000;stroke-width:0.16115065;stroke-linejoin:round;stroke-miterlimit:4;stroke-opacity:1;stroke-dasharray:none;display:inline"
       id="path3793"
       sodipodi:cx="255"
       sodipodi:cy="242.36218"
       sodipodi:rx="45"
       sodipodi:ry="30"
       d="m 300,242.36218 a 45,30 0 1 1 -90,0 45,30 0 1 1 90,0 z"
       transform="matrix(2.5333332,0,0.00913291,3.8,-418.21343,-678.61411)" />
  </g>
  <g
     inkscape:label="balls"
     inkscape:groupmode="layer"
     id="layer1"
     transform="translate(0,-2.5390623e-6)"
     style="display:none">
    <g
       id="g3808"
       transform="translate(-45.460028,-8.6719529)">
      <path
         transform="translate(140,175)"
         d="m 50,32.362183 a 20,20 0 1 1 -40,0 20,20 0 1 1 40,0 z"
         sodipodi:ry="20"
         sodipodi:rx="20"
         sodipodi:cy="32.362183"
         sodipodi:cx="30"
         id="path3781"
         style="opacity:0.75;fill:#b3b3b3;stroke-linejoin:round"
         sodipodi:type="arc" />
      <path
         inkscape:connector-curvature="0"
         id="path3802"
         d="m 165,202.36219 10,10"
         style="fill:none;stroke:#000000;stroke-width:0.25;stroke-linecap:butt;stroke-linejoin:miter;stroke-miterlimit:4;stroke-opacity:1;stroke-dasharray:none" />
      <path
         transform="translate(0,2.5390623e-6)"
         inkscape:connector-curvature="0"
         id="path3806"
         d="m 175,202.36218 -10,10"
         style="fill:none;stroke:#000000;stroke-width:0.25;stroke-linecap:butt;stroke-linejoin:miter;stroke-miterlimit:4;stroke-opacity:1;stroke-dasharray:none" />
    </g>
    <g
       transform="translate(-20.808377,-45.808374)"
       id="g3813">
      <path
         sodipodi:type="arc"
         style="opacity:0.75;fill:#b3b3b3;stroke-linejoin:round"
         id="path3815"
         sodipodi:cx="30"
         sodipodi:cy="32.362183"
         sodipodi:rx="20"
         sodipodi:ry="20"
         d="m 50,32.362183 a 20,20 0 1 1 -40,0 20,20 0 1 1 40,0 z"
         transform="translate(140,175)" />
      <path
         style="fill:none;stroke:#000000;stroke-width:0.25;stroke-linecap:butt;stroke-linejoin:miter;stroke-miterlimit:4;stroke-opacity:1;stroke-dasharray:none"
         d="m 165,202.36219 10,10"
         id="path3817"
         inkscape:connector-curvature="0" />
      <path
         style="fill:none;stroke:#000000;stroke-width:0.25;stroke-linecap:butt;stroke-linejoin:miter;stroke-miterlimit:4;stroke-opacity:1;stroke-dasharray:none"
         d="m 175,202.36218 -10,10"
         id="path3819"
         inkscape:connector-curvature="0"
         transform="translate(0,2.5390623e-6)" />
    </g>
    <g
       id="g3821"
       transform="translate(-54,35.000003)">
      <path
         transform="translate(140,175)"
         d="m 50,32.362183 a 20,20 0 1 1 -40,0 20,20 0 1 1 40,0 z"
         sodipodi:ry="20"
         sodipodi:rx="20"
         sodipodi:cy="32.362183"
         sodipodi:cx="30"
         id="path3823"
         style="opacity:0.75;fill:#b3b3b3;stroke-linejoin:round"
         sodipodi:type="arc" />
      <path
         inkscape:connector-curvature="0"
         id="path3825"
         d="m 165,202.36219 10,10"
         style="fill:none;stroke:#000000;stroke-width:0.25;stroke-linecap:butt;stroke-linejoin:miter;stroke-miterlimit:4;stroke-opacity:1;stroke-dasharray:none" />
      <path
         transform="translate(0,2.5390623e-6)"
         inkscape:connector-curvature="0"
         id="path3827"
         d="m 175,202.36218 -10,10"
         style="fill:none;stroke:#000000;stroke-width:0.25;stroke-linecap:butt;stroke-linejoin:miter;stroke-miterlimit:4;stroke-opacity:1;stroke-dasharray:none" />
    </g>
    <g
       id="g3829"
       transform="translate(16.304931,-70.610775)">
      <path
         transform="translate(140,175)"
         d="m 50,32.362183 a 20,20 0 1 1 -40,0 20,20 0 1 1 40,0 z"
         sodipodi:ry="20"
         sodipodi:rx="20"
         sodipodi:cy="32.362183"
         sodipodi:cx="30"
         id="path3831"
         style="opacity:0.75;fill:#b3b3b3;stroke-linejoin:round"
         sodipodi:type="arc" />
      <path
         inkscape:connector-curvature="0"
         id="path3833"
         d="m 165,202.36219 10,10"
         style="fill:none;stroke:#000000;stroke-width:0.25;stroke-linecap:butt;stroke-linejoin:miter;stroke-miterlimit:4;stroke-opacity:1;stroke-dasharray:none" />
      <path
         transform="translate(0,2.5390623e-6)"
         inkscape:connector-curvature="0"
         id="path3835"
         d="m 175,202.36218 -10,10"
         style="fill:none;stroke:#000000;stroke-width:0.25;stroke-linecap:butt;stroke-linejoin:miter;stroke-miterlimit:4;stroke-opacity:1;stroke-dasharray:none" />
    </g>
    <g
       transform="translate(60,-78.999997)"
       id="g3837">
      <path
         sodipodi:type="arc"
         style="opacity:0.75;fill:#b3b3b3;stroke-linejoin:round"
         id="path3839"
         sodipodi:cx="30"
         sodipodi:cy="32.362183"
         sodipodi:rx="20"
         sodipodi:ry="20"
         d="m 50,32.362183 a 20,20 0 1 1 -40,0 20,20 0 1 1 40,0 z"
         transform="translate(140,175)" />
      <path
         style="fill:none;stroke:#000000;stroke-width:0.25;stroke-linecap:butt;stroke-linejoin:miter;stroke-miterlimit:4;stroke-opacity:1;stroke-dasharray:none"
         d="m 165,202.36219 10,10"
         id="path3841"
         inkscape:connector-curvature="0" />
      <path
         style="fill:none;stroke:#000000;stroke-width:0.25;stroke-linecap:butt;stroke-linejoin:miter;stroke-miterlimit:4;stroke-opacity:1;stroke-dasharray:none"
         d="m 175,202.36218 -10,10"
         id="path3843"
         inkscape:connector-curvature="0"
         transform="translate(0,2.5390623e-6)" />
    </g>
    <g
       id="g3917"
       transform="translate(103.52284,-70.303298)">
      <path
         transform="translate(140,175)"
         d="m 50,32.362183 a 20,20 0 1 1 -40,0 20,20 0 1 1 40,0 z"
         sodipodi:ry="20"
         sodipodi:rx="20"
         sodipodi:cy="32.362183"
         sodipodi:cx="30"
         id="path3919"
         style="opacity:0.75;fill:#b3b3b3;stroke-linejoin:round"
         sodipodi:type="arc" />
      <path
         inkscape:connector-curvature="0"
         id="path3921"
         d="m 165,202.36219 10,10"
         style="fill:none;stroke:#000000;stroke-width:0.25;stroke-linecap:butt;stroke-linejoin:miter;stroke-miterlimit:4;stroke-opacity:1;stroke-dasharray:none" />
      <path
         transform="translate(0,2.5390623e-6)"
         inkscape:connector-curvature="0"
         id="path3923"
         d="m 175,202.36218 -10,10"
         style="fill:none;stroke:#000000;stroke-width:0.25;stroke-linecap:butt;stroke-linejoin:miter;stroke-miterlimit:4;stroke-opacity:1;stroke-dasharray:none" />
    </g>
    <g
       transform="translate(165.41044,-8.5942768)"
       id="g3925">
      <path
         sodipodi:type="arc"
         style="opacity:0.75;fill:#b3b3b3;stroke-linejoin:round"
         id="path3927"
         sodipodi:cx="30"
         sodipodi:cy="32.362183"
         sodipodi:rx="20"
         sodipodi:ry="20"
         d="m 50,32.362183 a 20,20 0 1 1 -40,0 20,20 0 1 1 40,0 z"
         transform="translate(140,175)" />
      <path
         style="fill:none;stroke:#000000;stroke-width:0.25;stroke-linecap:butt;stroke-linejoin:miter;stroke-miterlimit:4;stroke-opacity:1;stroke-dasharray:none"
         d="m 165,202.36219 10,10"
         id="path3929"
         inkscape:connector-curvature="0" />
      <path
         style="fill:none;stroke:#000000;stroke-width:0.25;stroke-linecap:butt;stroke-linejoin:miter;stroke-miterlimit:4;stroke-opacity:1;stroke-dasharray:none"
         d="m 175,202.36218 -10,10"
         id="path3931"
         inkscape:connector-curvature="0"
         transform="translate(0,2.5390623e-6)" />
    </g>
    <g
       id="g3933"
       transform="translate(174,35.000003)">
      <path
         transform="translate(140,175)"
         d="m 50,32.362183 a 20,20 0 1 1 -40,0 20,20 0 1 1 40,0 z"
         sodipodi:ry="20"
         sodipodi:rx="20"
         sodipodi:cy="32.362183"
         sodipodi:cx="30"
         id="path3935"
         style="opacity:0.75;fill:#b3b3b3;stroke-linejoin:round"
         sodipodi:type="arc" />
      <path
         inkscape:connector-curvature="0"
         id="path3937"
         d="m 165,202.36219 10,10"
         style="fill:none;stroke:#000000;stroke-width:0.25;stroke-linecap:butt;stroke-linejoin:miter;stroke-miterlimit:4;stroke-opacity:1;stroke-dasharray:none" />
      <path
         transform="translate(0,2.5390623e-6)"
         inkscape:connector-curvature="0"
         id="path3939"
         d="m 175,202.36218 -10,10"
         style="fill:none;stroke:#000000;stroke-width:0.25;stroke-linecap:butt;stroke-linejoin:miter;stroke-miterlimit:4;stroke-opacity:1;stroke-dasharray:none" />
    </g>
    <g
       transform="translate(140.45259,-45.488305)"
       id="g3941">
      <path
         sodipodi:type="arc"
         style="opacity:0.75;fill:#b3b3b3;stroke-linejoin:round"
         id="path3943"
         sodipodi:cx="30"
         sodipodi:cy="32.362183"
         sodipodi:rx="20"
         sodipodi:ry="20"
         d="m 50,32.362183 a 20,20 0 1 1 -40,0 20,20 0 1 1 40,0 z"
         transform="translate(140,175)" />
      <path
         style="fill:none;stroke:#000000;stroke-width:0.25;stroke-linecap:butt;stroke-linejoin:miter;stroke-miterlimit:4;stroke-opacity:1;stroke-dasharray:none"
         d="m 165,202.36219 10,10"
         id="path3945"
         inkscape:connector-curvature="0" />
      <path
         style="fill:none;stroke:#000000;stroke-width:0.25;stroke-linecap:butt;stroke-linejoin:miter;stroke-miterlimit:4;stroke-opacity:1;stroke-dasharray:none"
         d="m 175,202.36218 -10,10"
         id="path3947"
         inkscape:connector-curvature="0"
         transform="translate(0,2.5390623e-6)" />
    </g>
    <g
       id="g3949"
       transform="translate(60,149)">
      <path
         transform="translate(140,175)"
         d="m 50,32.362183 a 20,20 0 1 1 -40,0 20,20 0 1 1 40,0 z"
         sodipodi:ry="20"
         sodipodi:rx="20"
         sodipodi:cy="32.362183"
         sodipodi:cx="30"
         id="path3951"
         style="opacity:0.75;fill:#b3b3b3;stroke-linejoin:round"
         sodipodi:type="arc" />
      <path
         inkscape:connector-curvature="0"
         id="path3953"
         d="m 165,202.36219 10,10"
         style="fill:none;stroke:#000000;stroke-width:0.25;stroke-linecap:butt;stroke-linejoin:miter;stroke-miterlimit:4;stroke-opacity:1;stroke-dasharray:none" />
      <path
         transform="translate(0,2.5390623e-6)"
         inkscape:connector-curvature="0"
         id="path3955"
         d="m 175,202.36218 -10,10"
         style="fill:none;stroke:#000000;stroke-width:0.25;stroke-linecap:butt;stroke-linejoin:miter;stroke-miterlimit:4;stroke-opacity:1;stroke-dasharray:none" />
    </g>
    <g
       transform="translate(165.59155,78.646569)"
       id="g3957">
      <path
         sodipodi:type="arc"
         style="opacity:0.75;fill:#b3b3b3;stroke-linejoin:round"
         id="path3959"
         sodipodi:cx="30"
         sodipodi:cy="32.362183"
         sodipodi:rx="20"
         sodipodi:ry="20"
         d="m 50,32.362183 a 20,20 0 1 1 -40,0 20,20 0 1 1 40,0 z"
         transform="translate(140,175)" />
      <path
         style="fill:none;stroke:#000000;stroke-width:0.25;stroke-linecap:butt;stroke-linejoin:miter;stroke-miterlimit:4;stroke-opacity:1;stroke-dasharray:none"
         d="m 165,202.36219 10,10"
         id="path3961"
         inkscape:connector-curvature="0" />
      <path
         style="fill:none;stroke:#000000;stroke-width:0.25;stroke-linecap:butt;stroke-linejoin:miter;stroke-miterlimit:4;stroke-opacity:1;stroke-dasharray:none"
         d="m 175,202.36218 -10,10"
         id="path3963"
         inkscape:connector-curvature="0"
         transform="translate(0,2.5390623e-6)" />
    </g>
    <g
       id="g3965"
       transform="translate(103.6657,140.58901)">
      <path
         transform="translate(140,175)"
         d="m 50,32.362183 a 20,20 0 1 1 -40,0 20,20 0 1 1 40,0 z"
         sodipodi:ry="20"
         sodipodi:rx="20"
         sodipodi:cy="32.362183"
         sodipodi:cx="30"
         id="path3967"
         style="opacity:0.75;fill:#b3b3b3;stroke-linejoin:round"
         sodipodi:type="arc" />
      <path
         inkscape:connector-curvature="0"
         id="path3969"
         d="m 165,202.36219 10,10"
         style="fill:none;stroke:#000000;stroke-width:0.25;stroke-linecap:butt;stroke-linejoin:miter;stroke-miterlimit:4;stroke-opacity:1;stroke-dasharray:none" />
      <path
         transform="translate(0,2.5390623e-6)"
         inkscape:connector-curvature="0"
         id="path3971"
         d="m 175,202.36218 -10,10"
         style="fill:none;stroke:#000000;stroke-width:0.25;stroke-linecap:butt;stroke-linejoin:miter;stroke-miterlimit:4;stroke-opacity:1;stroke-dasharray:none" />
    </g>
    <g
       transform="translate(16.441443,140.27013)"
       id="g3973">
      <path
         sodipodi:type="arc"
         style="opacity:0.75;fill:#b3b3b3;stroke-linejoin:round"
         id="path3975"
         sodipodi:cx="30"
         sodipodi:cy="32.362183"
         sodipodi:rx="20"
         sodipodi:ry="20"
         d="m 50,32.362183 a 20,20 0 1 1 -40,0 20,20 0 1 1 40,0 z"
         transform="translate(140,175)" />
      <path
         style="fill:none;stroke:#000000;stroke-width:0.25;stroke-linecap:butt;stroke-linejoin:miter;stroke-miterlimit:4;stroke-opacity:1;stroke-dasharray:none"
         d="m 165,202.36219 10,10"
         id="path3977"
         inkscape:connector-curvature="0" />
      <path
         style="fill:none;stroke:#000000;stroke-width:0.25;stroke-linecap:butt;stroke-linejoin:miter;stroke-miterlimit:4;stroke-opacity:1;stroke-dasharray:none"
         d="m 175,202.36218 -10,10"
         id="path3979"
         inkscape:connector-curvature="0"
         transform="translate(0,2.5390623e-6)" />
    </g>
    <g
       id="g3981"
       transform="translate(-45.215284,78.541972)">
      <path
         transform="translate(140,175)"
         d="m 50,32.362183 a 20,20 0 1 1 -40,0 20,20 0 1 1 40,0 z"
         sodipodi:ry="20"
         sodipodi:rx="20"
         sodipodi:cy="32.362183"
         sodipodi:cx="30"
         id="path3983"
         style="opacity:0.75;fill:#b3b3b3;stroke-linejoin:round"
         sodipodi:type="arc" />
      <path
         inkscape:connector-curvature="0"
         id="path3985"
         d="m 165,202.36219 10,10"
         style="fill:none;stroke:#000000;stroke-width:0.25;stroke-linecap:butt;stroke-linejoin:miter;stroke-miterlimit:4;stroke-opacity:1;stroke-dasharray:none" />
      <path
         transform="translate(0,2.5390623e-6)"
         inkscape:connector-curvature="0"
         id="path3987"
         d="m 175,202.36218 -10,10"
         style="fill:none;stroke:#000000;stroke-width:0.25;stroke-linecap:butt;stroke-linejoin:miter;stroke-miterlimit:4;stroke-opacity:1;stroke-dasharray:none" />
    </g>
    <g
       transform="translate(140.63117,115.65029)"
       id="g3989">
      <path
         sodipodi:type="arc"
         style="opacity:0.75;fill:#b3b3b3;stroke-linejoin:round"
         id="path3991"
         sodipodi:cx="30"
         sodipodi:cy="32.362183"
         sodipodi:rx="20"
         sodipodi:ry="20"
         d="m 50,32.362183 a 20,20 0 1 1 -40,0 20,20 0 1 1 40,0 z"
         transform="translate(140,175)" />
      <path
         style="fill:none;stroke:#000000;stroke-width:0.25;stroke-linecap:butt;stroke-linejoin:miter;stroke-miterlimit:4;stroke-opacity:1;stroke-dasharray:none"
         d="m 165,202.36219 10,10"
         id="path3993"
         inkscape:connector-curvature="0" />
      <path
         style="fill:none;stroke:#000000;stroke-width:0.25;stroke-linecap:butt;stroke-linejoin:miter;stroke-miterlimit:4;stroke-opacity:1;stroke-dasharray:none"
         d="m 175,202.36218 -10,10"
         id="path3995"
         inkscape:connector-curvature="0"
         transform="translate(0,2.5390623e-6)" />
    </g>
    <g
       id="g3997"
       transform="translate(-20.416879,115.47172)">
      <path
         transform="translate(140,175)"
         d="m 50,32.362183 a 20,20 0 1 1 -40,0 20,20 0 1 1 40,0 z"
         sodipodi:ry="20"
         sodipodi:rx="20"
         sodipodi:cy="32.362183"
         sodipodi:cx="30"
         id="path3999"
         style="opacity:0.75;fill:#b3b3b3;stroke-linejoin:round"
         sodipodi:type="arc" />
      <path
         inkscape:connector-curvature="0"
         id="path4001"
         d="m 165,202.36219 10,10"
         style="fill:none;stroke:#000000;stroke-width:0.25;stroke-linecap:butt;stroke-linejoin:miter;stroke-miterlimit:4;stroke-opacity:1;stroke-dasharray:none" />
      <path
         transform="translate(0,2.5390623e-6)"
         inkscape:connector-curvature="0"
         id="path4003"
         d="m 175,202.36218 -10,10"
         style="fill:none;stroke:#000000;stroke-width:0.25;stroke-linecap:butt;stroke-linejoin:miter;stroke-miterlimit:4;stroke-opacity:1;stroke-dasharray:none" />
    </g>
  </g>
  <g
     inkscape:groupmode="layer"
     id="layer7"
     inkscape:label="display">
    <rect
       style="opacity:0.80392157;fill:#241f1c;fill-opacity:1;stroke:#000000;stroke-width:0.64999998;stroke-linejoin:round;stroke-miterlimit:4;stroke-opacity:1;stroke-dasharray:none"
       id="rect4118"
       width="77.952759"
       height="7.0866141"
       x="191.33858"
       y="364.9606" />
  </g>
  <g
     inkscape:groupmode="layer"
     id="layer3"
     inkscape:label="board"
     style="display:none">
    <rect
       style="opacity:0.75;fill:#ff6600;stroke-width:0.25;stroke-linejoin:round;stroke-miterlimit:4;stroke-dasharray:none;display:inline"
       id="rect4005"
       width="176.42857"
       height="120"
       x="-330.9231"
       y="170.08667"
       transform="matrix(0,-1,1,0,0,0)" />
  </g>
</svg>
