<?xml version="1.0" encoding="UTF-8" standalone="no"?>
<!-- Generator: Adobe Illustrator 9.0, SVG Export Plug-In  -->

<svg
   xmlns:dc="http://purl.org/dc/elements/1.1/"
   xmlns:cc="http://creativecommons.org/ns#"
   xmlns:rdf="http://www.w3.org/1999/02/22-rdf-syntax-ns#"
   xmlns:svg="http://www.w3.org/2000/svg"
   xmlns="http://www.w3.org/2000/svg"
   xmlns:sodipodi="http://sodipodi.sourceforge.net/DTD/sodipodi-0.dtd"
   xmlns:inkscape="http://www.inkscape.org/namespaces/inkscape"
   width="2834.6475"
   height="1396.0625"
   viewBox="0 0 2267.718 1116.85"
   xml:space="preserve"
   id="svg3804"
   sodipodi:version="0.32"
   inkscape:version="0.48.0 r9654"
   sodipodi:docname="led_cylinder_real_size_order.svg"
   inkscape:output_extension="org.inkscape.output.svg.inkscape"
   version="1.1"
   style="display:inline"><metadata
   id="metadata3848"><rdf:RDF><cc:Work
       rdf:about=""><dc:format>image/svg+xml</dc:format><dc:type
         rdf:resource="http://purl.org/dc/dcmitype/StillImage" /><dc:title /></cc:Work></rdf:RDF></metadata><defs
   id="defs3846">
		
		
		
		
		
		
		
	</defs><sodipodi:namedview
   inkscape:window-height="724"
   inkscape:window-width="1366"
   inkscape:pageshadow="2"
   inkscape:pageopacity="0.0"
   guidetolerance="10.0"
   gridtolerance="10.0"
   objecttolerance="10.0"
   borderopacity="1.0"
   bordercolor="#666666"
   pagecolor="#ffffff"
   id="base"
   inkscape:zoom="0.38254353"
   inkscape:cx="2347.5365"
   inkscape:cy="589.21373"
   inkscape:window-x="0"
   inkscape:window-y="25"
   inkscape:current-layer="svg3804"
   showgrid="true"
   inkscape:document-units="mm"
   units="mm"
   inkscape:window-maximized="1"
   inkscape:snap-global="false"><inkscape:grid
     type="xygrid"
     id="grid2995"
     empspacing="1"
     visible="true"
     enabled="true"
     snapvisiblegridlinesonly="true"
     units="mm"
     spacingx="1mm"
     spacingy="1mm" /></sodipodi:namedview>
	<path
   inkscape:connector-curvature="0"
   id="path3807"
   d="M 2262.718,1117.0499 H -5.0000001 V 0.19988274 H 2262.718 V 1117.0499 z"
   style="fill:#f6921e;fill-rule:nonzero;stroke:none" /><path
   inkscape:connector-curvature="0"
   id="path3809"
   d="M 2248.543,1102.8779 H 9.1729999 V 14.372883 H 2248.543 V 1102.8769 z"
   style="fill:#ffffff;fill-rule:nonzero;stroke:none" /><path
   sodipodi:type="arc"
   style="fill:none;stroke:#0000ff;stroke-linejoin:round;stroke-miterlimit:4;stroke-opacity:1;stroke-width:0.02725621;stroke-dasharray:none"
   id="path4069-0"
   sodipodi:cx="637.79529"
   sodipodi:cy="651.96802"
   sodipodi:rx="354.33072"
   sodipodi:ry="354.33072"
   d="m 992.12601,651.96802 a 354.33072,354.33072 0 1 1 -708.66144,0 354.33072,354.33072 0 1 1 708.66144,0 z"
   transform="matrix(1.04,0,0,1.04,1174.2126,-283.83138)" />
<g
   inkscape:groupmode="layer"
   id="layer2"
   inkscape:label="holes"
   style="display:inline"><path
     inkscape:connector-curvature="0"
     id="path4069"
     d="m 391.8504,25.71141 c -203.51911,0 -368.50001,165.00589 -368.50001,368.525 0,203.5191 164.9809,368.5 368.50001,368.5 l 0,-141.75 c -125.24253,0 -226.77501,-101.50748 -226.77501,-226.75 0,-125.24252 101.53248,-226.775 226.77501,-226.775 l 0,-141.75 z"
     style="fill:none;stroke:#0000ff;stroke-width:0.02834646;stroke-linejoin:round;stroke-miterlimit:4;stroke-opacity:1;stroke-dasharray:none;display:inline" /><path
     sodipodi:type="arc"
     style="fill:none;stroke:#0000ff;stroke-width:0.19221952;stroke-linejoin:round;stroke-miterlimit:4;stroke-opacity:1;stroke-dasharray:none;display:inline"
     id="path3939"
     sodipodi:cx="371.625"
     sodipodi:cy="148.9375"
     sodipodi:rx="13.875"
     sodipodi:ry="14.375"
     d="m 385.5,148.9375 a 13.875,14.375 0 1 1 -27.75,0 13.875,14.375 0 1 1 27.75,0 z"
     transform="matrix(0.15038388,0,0,0.14461098,290.1886,116.96199)"
     inkscape:transform-center-x="0.21785875"
     inkscape:transform-center-y="-1.4469776" /><path
     inkscape:transform-center-y="-1.4469776"
     inkscape:transform-center-x="0.21785875"
     transform="matrix(0.15038388,0,0,0.14461098,196.11789,155.69128)"
     d="m 385.5,148.9375 a 13.875,14.375 0 1 1 -27.75,0 13.875,14.375 0 1 1 27.75,0 z"
     sodipodi:ry="14.375"
     sodipodi:rx="13.875"
     sodipodi:cy="148.9375"
     sodipodi:cx="371.625"
     id="path4541"
     style="fill:none;stroke:#0000ff;stroke-width:0.19221952;stroke-linejoin:round;stroke-miterlimit:4;stroke-opacity:1;stroke-dasharray:none;display:inline"
     sodipodi:type="arc" /><path
     sodipodi:type="arc"
     style="fill:none;stroke:#0000ff;stroke-width:0.19221952;stroke-linejoin:round;stroke-miterlimit:4;stroke-opacity:1;stroke-dasharray:none;display:inline"
     id="path4543"
     sodipodi:cx="371.625"
     sodipodi:cy="148.9375"
     sodipodi:rx="13.875"
     sodipodi:ry="14.375"
     d="m 385.5,148.9375 a 13.875,14.375 0 1 1 -27.75,0 13.875,14.375 0 1 1 27.75,0 z"
     transform="matrix(0.15038388,0,0,0.14461098,124.13442,227.53333)"
     inkscape:transform-center-x="0.21785875"
     inkscape:transform-center-y="-1.4469776" /><path
     inkscape:transform-center-y="-1.4469776"
     inkscape:transform-center-x="0.21785875"
     transform="matrix(0.15038388,0,0,0.14461098,85.102128,321.50782)"
     d="m 385.5,148.9375 a 13.875,14.375 0 1 1 -27.75,0 13.875,14.375 0 1 1 27.75,0 z"
     sodipodi:ry="14.375"
     sodipodi:rx="13.875"
     sodipodi:cy="148.9375"
     sodipodi:cx="371.625"
     id="path4545"
     style="fill:none;stroke:#0000ff;stroke-width:0.19221952;stroke-linejoin:round;stroke-miterlimit:4;stroke-opacity:1;stroke-dasharray:none;display:inline"
     sodipodi:type="arc" /><path
     sodipodi:type="arc"
     style="fill:none;stroke:#0000ff;stroke-width:0.19221952;stroke-linejoin:round;stroke-miterlimit:4;stroke-opacity:1;stroke-dasharray:none;display:inline"
     id="path4547"
     sodipodi:cx="371.625"
     sodipodi:cy="148.9375"
     sodipodi:rx="13.875"
     sodipodi:ry="14.375"
     d="m 385.5,148.9375 a 13.875,14.375 0 1 1 -27.75,0 13.875,14.375 0 1 1 27.75,0 z"
     transform="matrix(0.15038388,0,0,0.14461098,85.172837,423.33119)"
     inkscape:transform-center-x="0.21785875"
     inkscape:transform-center-y="-1.4469776" /><path
     inkscape:transform-center-y="-1.4469776"
     inkscape:transform-center-x="0.21785875"
     transform="matrix(0.15038388,0,0,0.14461098,124.06371,517.44711)"
     d="m 385.5,148.9375 a 13.875,14.375 0 1 1 -27.75,0 13.875,14.375 0 1 1 27.75,0 z"
     sodipodi:ry="14.375"
     sodipodi:rx="13.875"
     sodipodi:cy="148.9375"
     sodipodi:cx="371.625"
     id="path4549"
     style="fill:none;stroke:#0000ff;stroke-width:0.19221952;stroke-linejoin:round;stroke-miterlimit:4;stroke-opacity:1;stroke-dasharray:none;display:inline"
     sodipodi:type="arc" /><path
     sodipodi:type="arc"
     style="fill:none;stroke:#0000ff;stroke-width:0.19221952;stroke-linejoin:round;stroke-miterlimit:4;stroke-opacity:1;stroke-dasharray:none;display:inline"
     id="path4551"
     sodipodi:cx="371.625"
     sodipodi:cy="148.9375"
     sodipodi:rx="13.875"
     sodipodi:ry="14.375"
     d="m 385.5,148.9375 a 13.875,14.375 0 1 1 -27.75,0 13.875,14.375 0 1 1 27.75,0 z"
     transform="matrix(0.15038388,0,0,0.14461098,196.15058,589.25906)"
     inkscape:transform-center-x="0.21785875"
     inkscape:transform-center-y="-1.4469776" /><path
     inkscape:transform-center-y="-1.4469776"
     inkscape:transform-center-x="0.21785875"
     transform="matrix(0.15038388,0,0,0.14461098,290.12705,627.98597)"
     d="m 385.5,148.9375 a 13.875,14.375 0 1 1 -27.75,0 13.875,14.375 0 1 1 27.75,0 z"
     sodipodi:ry="14.375"
     sodipodi:rx="13.875"
     sodipodi:cy="148.9375"
     sodipodi:cx="371.625"
     id="path4553"
     style="fill:none;stroke:#0000ff;stroke-width:0.19221952;stroke-linejoin:round;stroke-miterlimit:4;stroke-opacity:1;stroke-dasharray:none;display:inline"
     sodipodi:type="arc" /></g><g
   inkscape:groupmode="layer"
   id="layer1"
   inkscape:label="Layer"
   style="display:none"><path
     inkscape:connector-curvature="0"
     id="path3914"
     d="M 35.427156,465.90691 396.8504,394.01535"
     style="fill:none;stroke:#000000;stroke-width:1.01980388px;stroke-linecap:butt;stroke-linejoin:miter;stroke-opacity:1" /><path
     inkscape:connector-curvature="0"
     id="path3916"
     d="M 90.450572,598.74517 396.8504,394.01535"
     style="fill:none;stroke:#000000;stroke-width:1.01980388px;stroke-linecap:butt;stroke-linejoin:miter;stroke-opacity:1" /><path
     inkscape:connector-curvature="0"
     id="path3918"
     d="M 192.12058,700.41519 396.8504,394.01535"
     style="fill:none;stroke:#000000;stroke-width:1.01980388px;stroke-linecap:butt;stroke-linejoin:miter;stroke-opacity:1" /><path
     inkscape:connector-curvature="0"
     id="path3920"
     d="M 324.95885,755.43859 396.8504,394.01535"
     style="fill:none;stroke:#000000;stroke-width:1.01980388px;stroke-linecap:butt;stroke-linejoin:miter;stroke-opacity:1" /><path
     inkscape:connector-curvature="0"
     id="path3922"
     d="M 35.427156,322.12379 396.8504,394.01535"
     style="fill:none;stroke:#000000;stroke-width:1.01980388px;stroke-linecap:butt;stroke-linejoin:miter;stroke-opacity:1" /><path
     inkscape:connector-curvature="0"
     id="path3924"
     d="M 90.450572,189.28553 396.8504,394.01535"
     style="fill:none;stroke:#000000;stroke-width:1.01980388px;stroke-linecap:butt;stroke-linejoin:miter;stroke-opacity:1" /><path
     inkscape:connector-curvature="0"
     id="path3926"
     d="M 192.12058,87.615512 396.8504,394.01535"
     style="fill:none;stroke:#000000;stroke-width:1.01980388px;stroke-linecap:butt;stroke-linejoin:miter;stroke-opacity:1" /><path
     inkscape:connector-curvature="0"
     id="path3928"
     d="M 324.95885,32.592112 396.8504,394.01535"
     style="fill:none;stroke:#000000;stroke-width:1.01980388px;stroke-linecap:butt;stroke-linejoin:miter;stroke-opacity:1" /><path
     sodipodi:type="arc"
     style="fill:none;stroke:#0000ff;stroke-linejoin:round;stroke-opacity:1"
     id="path3934"
     sodipodi:cx="469.48819"
     sodipodi:cy="465.9444"
     sodipodi:rx="292.32285"
     sodipodi:ry="292.32285"
     d="M 511.34779,755.25465 A 292.32285,292.32285 0 1 1 498.16113,175.03117 L 469.48819,465.9444 z"
     transform="matrix(0.88969192,0,0,0.89061838,-21.559582,-20.955545)"
     sodipodi:start="1.4271059"
     sodipodi:end="4.8106335" /></g><path
   inkscape:connector-curvature="0"
   id="path4069-4"
   d="m 200.28434,1061.6025 c 203.51911,0 368.50001,-165.0059 368.50001,-368.52501 0,-203.5191 -164.9809,-368.5 -368.50001,-368.5 l 0,141.75 c 125.24253,0 226.77501,101.50748 226.77501,226.75 0,125.24252 -101.53248,226.775 -226.77501,226.775 l 0,141.75001 z"
   style="fill:none;stroke:#0000ff;stroke-width:0.02834646;stroke-linejoin:round;stroke-miterlimit:4;stroke-opacity:1;stroke-dasharray:none;display:inline" /><path
   sodipodi:type="arc"
   style="fill:none;stroke:#0000ff;stroke-width:0.19221952;stroke-linejoin:round;stroke-miterlimit:4;stroke-opacity:1;stroke-dasharray:none;display:inline"
   id="path3939-9"
   sodipodi:cx="371.625"
   sodipodi:cy="148.9375"
   sodipodi:rx="13.875"
   sodipodi:ry="14.375"
   d="m 385.5,148.9375 a 13.875,14.375 0 1 1 -27.75,0 13.875,14.375 0 1 1 27.75,0 z"
   transform="matrix(-0.15038388,0,0,-0.14461098,301.94614,970.35191)"
   inkscape:transform-center-x="0.21785875"
   inkscape:transform-center-y="-1.4469776" /><path
   inkscape:transform-center-y="-1.4469776"
   inkscape:transform-center-x="0.21785875"
   transform="matrix(-0.15038388,0,0,-0.14461098,396.01685,931.62262)"
   d="m 385.5,148.9375 a 13.875,14.375 0 1 1 -27.75,0 13.875,14.375 0 1 1 27.75,0 z"
   sodipodi:ry="14.375"
   sodipodi:rx="13.875"
   sodipodi:cy="148.9375"
   sodipodi:cx="371.625"
   id="path4541-2"
   style="fill:none;stroke:#0000ff;stroke-width:0.19221952;stroke-linejoin:round;stroke-miterlimit:4;stroke-opacity:1;stroke-dasharray:none;display:inline"
   sodipodi:type="arc" /><path
   sodipodi:type="arc"
   style="fill:none;stroke:#0000ff;stroke-width:0.19221952;stroke-linejoin:round;stroke-miterlimit:4;stroke-opacity:1;stroke-dasharray:none;display:inline"
   id="path4543-0"
   sodipodi:cx="371.625"
   sodipodi:cy="148.9375"
   sodipodi:rx="13.875"
   sodipodi:ry="14.375"
   d="m 385.5,148.9375 a 13.875,14.375 0 1 1 -27.75,0 13.875,14.375 0 1 1 27.75,0 z"
   transform="matrix(-0.15038388,0,0,-0.14461098,468.00032,859.78057)"
   inkscape:transform-center-x="0.21785875"
   inkscape:transform-center-y="-1.4469776" /><path
   inkscape:transform-center-y="-1.4469776"
   inkscape:transform-center-x="0.21785875"
   transform="matrix(-0.15038388,0,0,-0.14461098,507.03261,765.80608)"
   d="m 385.5,148.9375 a 13.875,14.375 0 1 1 -27.75,0 13.875,14.375 0 1 1 27.75,0 z"
   sodipodi:ry="14.375"
   sodipodi:rx="13.875"
   sodipodi:cy="148.9375"
   sodipodi:cx="371.625"
   id="path4545-6"
   style="fill:none;stroke:#0000ff;stroke-width:0.19221952;stroke-linejoin:round;stroke-miterlimit:4;stroke-opacity:1;stroke-dasharray:none;display:inline"
   sodipodi:type="arc" /><path
   sodipodi:type="arc"
   style="fill:none;stroke:#0000ff;stroke-width:0.19221952;stroke-linejoin:round;stroke-miterlimit:4;stroke-opacity:1;stroke-dasharray:none;display:inline"
   id="path4547-8"
   sodipodi:cx="371.625"
   sodipodi:cy="148.9375"
   sodipodi:rx="13.875"
   sodipodi:ry="14.375"
   d="m 385.5,148.9375 a 13.875,14.375 0 1 1 -27.75,0 13.875,14.375 0 1 1 27.75,0 z"
   transform="matrix(-0.15038388,0,0,-0.14461098,506.9619,663.98271)"
   inkscape:transform-center-x="0.21785875"
   inkscape:transform-center-y="-1.4469776" /><path
   inkscape:transform-center-y="-1.4469776"
   inkscape:transform-center-x="0.21785875"
   transform="matrix(-0.15038388,0,0,-0.14461098,468.07103,569.86679)"
   d="m 385.5,148.9375 a 13.875,14.375 0 1 1 -27.75,0 13.875,14.375 0 1 1 27.75,0 z"
   sodipodi:ry="14.375"
   sodipodi:rx="13.875"
   sodipodi:cy="148.9375"
   sodipodi:cx="371.625"
   id="path4549-9"
   style="fill:none;stroke:#0000ff;stroke-width:0.19221952;stroke-linejoin:round;stroke-miterlimit:4;stroke-opacity:1;stroke-dasharray:none;display:inline"
   sodipodi:type="arc" /><path
   sodipodi:type="arc"
   style="fill:none;stroke:#0000ff;stroke-width:0.19221952;stroke-linejoin:round;stroke-miterlimit:4;stroke-opacity:1;stroke-dasharray:none;display:inline"
   id="path4551-2"
   sodipodi:cx="371.625"
   sodipodi:cy="148.9375"
   sodipodi:rx="13.875"
   sodipodi:ry="14.375"
   d="m 385.5,148.9375 a 13.875,14.375 0 1 1 -27.75,0 13.875,14.375 0 1 1 27.75,0 z"
   transform="matrix(-0.15038388,0,0,-0.14461098,395.98416,498.05484)"
   inkscape:transform-center-x="0.21785875"
   inkscape:transform-center-y="-1.4469776" /><path
   inkscape:transform-center-y="-1.4469776"
   inkscape:transform-center-x="0.21785875"
   transform="matrix(-0.15038388,0,0,-0.14461098,302.00769,459.32793)"
   d="m 385.5,148.9375 a 13.875,14.375 0 1 1 -27.75,0 13.875,14.375 0 1 1 27.75,0 z"
   sodipodi:ry="14.375"
   sodipodi:rx="13.875"
   sodipodi:cy="148.9375"
   sodipodi:cx="371.625"
   id="path4553-6"
   style="fill:none;stroke:#0000ff;stroke-width:0.19221952;stroke-linejoin:round;stroke-miterlimit:4;stroke-opacity:1;stroke-dasharray:none;display:inline"
   sodipodi:type="arc" /><path
   inkscape:connector-curvature="0"
   id="path4069-4-5"
   d="m 700.4503,1060.5505 c 203.51911,0 368.5,-165.0059 368.5,-368.52501 0,-203.5191 -164.98089,-368.5 -368.5,-368.5 l 0,141.75 c 125.24253,0 226.77501,101.50748 226.77501,226.75 0,125.24252 -101.53248,226.775 -226.77501,226.775 l 0,141.75001 z"
   style="fill:none;stroke:#0000ff;stroke-width:0.02834646;stroke-linejoin:round;stroke-miterlimit:4;stroke-opacity:1;stroke-dasharray:none;display:inline" /><path
   sodipodi:type="arc"
   style="fill:none;stroke:#0000ff;stroke-width:0.19221952;stroke-linejoin:round;stroke-miterlimit:4;stroke-opacity:1;stroke-dasharray:none;display:inline"
   id="path3939-9-9"
   sodipodi:cx="371.625"
   sodipodi:cy="148.9375"
   sodipodi:rx="13.875"
   sodipodi:ry="14.375"
   d="m 385.5,148.9375 a 13.875,14.375 0 1 1 -27.75,0 13.875,14.375 0 1 1 27.75,0 z"
   transform="matrix(-0.15038388,0,0,-0.14461098,802.1121,969.29991)"
   inkscape:transform-center-x="0.21785875"
   inkscape:transform-center-y="-1.4469776" /><path
   inkscape:transform-center-y="-1.4469776"
   inkscape:transform-center-x="0.21785875"
   transform="matrix(-0.15038388,0,0,-0.14461098,896.18281,930.57062)"
   d="m 385.5,148.9375 a 13.875,14.375 0 1 1 -27.75,0 13.875,14.375 0 1 1 27.75,0 z"
   sodipodi:ry="14.375"
   sodipodi:rx="13.875"
   sodipodi:cy="148.9375"
   sodipodi:cx="371.625"
   id="path4541-2-4"
   style="fill:none;stroke:#0000ff;stroke-width:0.19221952;stroke-linejoin:round;stroke-miterlimit:4;stroke-opacity:1;stroke-dasharray:none;display:inline"
   sodipodi:type="arc" /><path
   sodipodi:type="arc"
   style="fill:none;stroke:#0000ff;stroke-width:0.19221952;stroke-linejoin:round;stroke-miterlimit:4;stroke-opacity:1;stroke-dasharray:none;display:inline"
   id="path4543-0-9"
   sodipodi:cx="371.625"
   sodipodi:cy="148.9375"
   sodipodi:rx="13.875"
   sodipodi:ry="14.375"
   d="m 385.5,148.9375 a 13.875,14.375 0 1 1 -27.75,0 13.875,14.375 0 1 1 27.75,0 z"
   transform="matrix(-0.15038388,0,0,-0.14461098,968.16628,858.72857)"
   inkscape:transform-center-x="0.21785875"
   inkscape:transform-center-y="-1.4469776" /><path
   inkscape:transform-center-y="-1.4469776"
   inkscape:transform-center-x="0.21785875"
   transform="matrix(-0.15038388,0,0,-0.14461098,1007.1986,764.75408)"
   d="m 385.5,148.9375 a 13.875,14.375 0 1 1 -27.75,0 13.875,14.375 0 1 1 27.75,0 z"
   sodipodi:ry="14.375"
   sodipodi:rx="13.875"
   sodipodi:cy="148.9375"
   sodipodi:cx="371.625"
   id="path4545-6-0"
   style="fill:none;stroke:#0000ff;stroke-width:0.19221952;stroke-linejoin:round;stroke-miterlimit:4;stroke-opacity:1;stroke-dasharray:none;display:inline"
   sodipodi:type="arc" /><path
   sodipodi:type="arc"
   style="fill:none;stroke:#0000ff;stroke-width:0.19221952;stroke-linejoin:round;stroke-miterlimit:4;stroke-opacity:1;stroke-dasharray:none;display:inline"
   id="path4547-8-9"
   sodipodi:cx="371.625"
   sodipodi:cy="148.9375"
   sodipodi:rx="13.875"
   sodipodi:ry="14.375"
   d="m 385.5,148.9375 a 13.875,14.375 0 1 1 -27.75,0 13.875,14.375 0 1 1 27.75,0 z"
   transform="matrix(-0.15038388,0,0,-0.14461098,1007.1279,662.93071)"
   inkscape:transform-center-x="0.21785875"
   inkscape:transform-center-y="-1.4469776" /><path
   inkscape:transform-center-y="-1.4469776"
   inkscape:transform-center-x="0.21785875"
   transform="matrix(-0.15038388,0,0,-0.14461098,968.23699,568.81479)"
   d="m 385.5,148.9375 a 13.875,14.375 0 1 1 -27.75,0 13.875,14.375 0 1 1 27.75,0 z"
   sodipodi:ry="14.375"
   sodipodi:rx="13.875"
   sodipodi:cy="148.9375"
   sodipodi:cx="371.625"
   id="path4549-9-1"
   style="fill:none;stroke:#0000ff;stroke-width:0.19221952;stroke-linejoin:round;stroke-miterlimit:4;stroke-opacity:1;stroke-dasharray:none;display:inline"
   sodipodi:type="arc" /><path
   sodipodi:type="arc"
   style="fill:none;stroke:#0000ff;stroke-width:0.19221952;stroke-linejoin:round;stroke-miterlimit:4;stroke-opacity:1;stroke-dasharray:none;display:inline"
   id="path4551-2-7"
   sodipodi:cx="371.625"
   sodipodi:cy="148.9375"
   sodipodi:rx="13.875"
   sodipodi:ry="14.375"
   d="m 385.5,148.9375 a 13.875,14.375 0 1 1 -27.75,0 13.875,14.375 0 1 1 27.75,0 z"
   transform="matrix(-0.15038388,0,0,-0.14461098,896.15012,497.00284)"
   inkscape:transform-center-x="0.21785875"
   inkscape:transform-center-y="-1.4469776" /><path
   inkscape:transform-center-y="-1.4469776"
   inkscape:transform-center-x="0.21785875"
   transform="matrix(-0.15038388,0,0,-0.14461098,802.17365,458.27593)"
   d="m 385.5,148.9375 a 13.875,14.375 0 1 1 -27.75,0 13.875,14.375 0 1 1 27.75,0 z"
   sodipodi:ry="14.375"
   sodipodi:rx="13.875"
   sodipodi:cy="148.9375"
   sodipodi:cx="371.625"
   id="path4553-6-7"
   style="fill:none;stroke:#0000ff;stroke-width:0.19221952;stroke-linejoin:round;stroke-miterlimit:4;stroke-opacity:1;stroke-dasharray:none;display:inline"
   sodipodi:type="arc" /><path
   inkscape:connector-curvature="0"
   id="path4069-9"
   d="m 889.67182,21.480218 c -203.51911,0 -368.50001,165.005892 -368.50001,368.525002 0,203.5191 164.9809,368.5 368.50001,368.5 l 0,-141.75 c -125.24253,0 -226.77501,-101.50748 -226.77501,-226.75 0,-125.24252 101.53248,-226.775 226.77501,-226.775 l 0,-141.750002 z"
   style="fill:none;stroke:#0000ff;stroke-width:0.02834646;stroke-linejoin:round;stroke-miterlimit:4;stroke-opacity:1;stroke-dasharray:none;display:inline" /><path
   sodipodi:type="arc"
   style="fill:none;stroke:#0000ff;stroke-width:0.19221952;stroke-linejoin:round;stroke-miterlimit:4;stroke-opacity:1;stroke-dasharray:none;display:inline"
   id="path3939-7"
   sodipodi:cx="371.625"
   sodipodi:cy="148.9375"
   sodipodi:rx="13.875"
   sodipodi:ry="14.375"
   d="m 385.5,148.9375 a 13.875,14.375 0 1 1 -27.75,0 13.875,14.375 0 1 1 27.75,0 z"
   transform="matrix(0.15038388,0,0,0.14461098,788.01002,112.7308)"
   inkscape:transform-center-x="0.21785875"
   inkscape:transform-center-y="-1.4469776" /><path
   inkscape:transform-center-y="-1.4469776"
   inkscape:transform-center-x="0.21785875"
   transform="matrix(0.15038388,0,0,0.14461098,693.93931,151.46009)"
   d="m 385.5,148.9375 a 13.875,14.375 0 1 1 -27.75,0 13.875,14.375 0 1 1 27.75,0 z"
   sodipodi:ry="14.375"
   sodipodi:rx="13.875"
   sodipodi:cy="148.9375"
   sodipodi:cx="371.625"
   id="path4541-7"
   style="fill:none;stroke:#0000ff;stroke-width:0.19221952;stroke-linejoin:round;stroke-miterlimit:4;stroke-opacity:1;stroke-dasharray:none;display:inline"
   sodipodi:type="arc" /><path
   sodipodi:type="arc"
   style="fill:none;stroke:#0000ff;stroke-width:0.19221952;stroke-linejoin:round;stroke-miterlimit:4;stroke-opacity:1;stroke-dasharray:none;display:inline"
   id="path4543-6"
   sodipodi:cx="371.625"
   sodipodi:cy="148.9375"
   sodipodi:rx="13.875"
   sodipodi:ry="14.375"
   d="m 385.5,148.9375 a 13.875,14.375 0 1 1 -27.75,0 13.875,14.375 0 1 1 27.75,0 z"
   transform="matrix(0.15038388,0,0,0.14461098,621.95584,223.30214)"
   inkscape:transform-center-x="0.21785875"
   inkscape:transform-center-y="-1.4469776" /><path
   inkscape:transform-center-y="-1.4469776"
   inkscape:transform-center-x="0.21785875"
   transform="matrix(0.15038388,0,0,0.14461098,582.92355,317.27663)"
   d="m 385.5,148.9375 a 13.875,14.375 0 1 1 -27.75,0 13.875,14.375 0 1 1 27.75,0 z"
   sodipodi:ry="14.375"
   sodipodi:rx="13.875"
   sodipodi:cy="148.9375"
   sodipodi:cx="371.625"
   id="path4545-7"
   style="fill:none;stroke:#0000ff;stroke-width:0.19221952;stroke-linejoin:round;stroke-miterlimit:4;stroke-opacity:1;stroke-dasharray:none;display:inline"
   sodipodi:type="arc" /><path
   sodipodi:type="arc"
   style="fill:none;stroke:#0000ff;stroke-width:0.19221952;stroke-linejoin:round;stroke-miterlimit:4;stroke-opacity:1;stroke-dasharray:none;display:inline"
   id="path4547-3"
   sodipodi:cx="371.625"
   sodipodi:cy="148.9375"
   sodipodi:rx="13.875"
   sodipodi:ry="14.375"
   d="m 385.5,148.9375 a 13.875,14.375 0 1 1 -27.75,0 13.875,14.375 0 1 1 27.75,0 z"
   transform="matrix(0.15038388,0,0,0.14461098,582.99426,419.1)"
   inkscape:transform-center-x="0.21785875"
   inkscape:transform-center-y="-1.4469776" /><path
   inkscape:transform-center-y="-1.4469776"
   inkscape:transform-center-x="0.21785875"
   transform="matrix(0.15038388,0,0,0.14461098,621.88513,513.21592)"
   d="m 385.5,148.9375 a 13.875,14.375 0 1 1 -27.75,0 13.875,14.375 0 1 1 27.75,0 z"
   sodipodi:ry="14.375"
   sodipodi:rx="13.875"
   sodipodi:cy="148.9375"
   sodipodi:cx="371.625"
   id="path4549-6"
   style="fill:none;stroke:#0000ff;stroke-width:0.19221952;stroke-linejoin:round;stroke-miterlimit:4;stroke-opacity:1;stroke-dasharray:none;display:inline"
   sodipodi:type="arc" /><path
   sodipodi:type="arc"
   style="fill:none;stroke:#0000ff;stroke-width:0.19221952;stroke-linejoin:round;stroke-miterlimit:4;stroke-opacity:1;stroke-dasharray:none;display:inline"
   id="path4551-5"
   sodipodi:cx="371.625"
   sodipodi:cy="148.9375"
   sodipodi:rx="13.875"
   sodipodi:ry="14.375"
   d="m 385.5,148.9375 a 13.875,14.375 0 1 1 -27.75,0 13.875,14.375 0 1 1 27.75,0 z"
   transform="matrix(0.15038388,0,0,0.14461098,693.972,585.02787)"
   inkscape:transform-center-x="0.21785875"
   inkscape:transform-center-y="-1.4469776" /><path
   inkscape:transform-center-y="-1.4469776"
   inkscape:transform-center-x="0.21785875"
   transform="matrix(0.15038388,0,0,0.14461098,787.94847,623.75478)"
   d="m 385.5,148.9375 a 13.875,14.375 0 1 1 -27.75,0 13.875,14.375 0 1 1 27.75,0 z"
   sodipodi:ry="14.375"
   sodipodi:rx="13.875"
   sodipodi:cy="148.9375"
   sodipodi:cx="371.625"
   id="path4553-63"
   style="fill:none;stroke:#0000ff;stroke-width:0.19221952;stroke-linejoin:round;stroke-miterlimit:4;stroke-opacity:1;stroke-dasharray:none;display:inline"
   sodipodi:type="arc" /><path
   inkscape:connector-curvature="0"
   id="path4069-1"
   d="m 1421.6612,23.428902 c -203.5191,0 -368.5,165.005888 -368.5,368.524998 0,203.5191 164.9809,368.5 368.5,368.5 l 0,-141.75 c -125.2425,0 -226.775,-101.50748 -226.775,-226.75 0,-125.24252 101.5325,-226.775 226.775,-226.775 l 0,-141.749998 z"
   style="fill:none;stroke:#0000ff;stroke-width:0.02834646;stroke-linejoin:round;stroke-miterlimit:4;stroke-opacity:1;stroke-dasharray:none;display:inline" /><path
   sodipodi:type="arc"
   style="fill:none;stroke:#0000ff;stroke-width:0.19221952;stroke-linejoin:round;stroke-miterlimit:4;stroke-opacity:1;stroke-dasharray:none;display:inline"
   id="path3939-2"
   sodipodi:cx="371.625"
   sodipodi:cy="148.9375"
   sodipodi:rx="13.875"
   sodipodi:ry="14.375"
   d="m 385.5,148.9375 a 13.875,14.375 0 1 1 -27.75,0 13.875,14.375 0 1 1 27.75,0 z"
   transform="matrix(0.15038388,0,0,0.14461098,1319.9994,114.67948)"
   inkscape:transform-center-x="0.21785875"
   inkscape:transform-center-y="-1.4469776" /><path
   inkscape:transform-center-y="-1.4469776"
   inkscape:transform-center-x="0.21785875"
   transform="matrix(0.15038388,0,0,0.14461098,1225.9287,153.40877)"
   d="m 385.5,148.9375 a 13.875,14.375 0 1 1 -27.75,0 13.875,14.375 0 1 1 27.75,0 z"
   sodipodi:ry="14.375"
   sodipodi:rx="13.875"
   sodipodi:cy="148.9375"
   sodipodi:cx="371.625"
   id="path4541-9"
   style="fill:none;stroke:#0000ff;stroke-width:0.19221952;stroke-linejoin:round;stroke-miterlimit:4;stroke-opacity:1;stroke-dasharray:none;display:inline"
   sodipodi:type="arc" /><path
   sodipodi:type="arc"
   style="fill:none;stroke:#0000ff;stroke-width:0.19221952;stroke-linejoin:round;stroke-miterlimit:4;stroke-opacity:1;stroke-dasharray:none;display:inline"
   id="path4543-3"
   sodipodi:cx="371.625"
   sodipodi:cy="148.9375"
   sodipodi:rx="13.875"
   sodipodi:ry="14.375"
   d="m 385.5,148.9375 a 13.875,14.375 0 1 1 -27.75,0 13.875,14.375 0 1 1 27.75,0 z"
   transform="matrix(0.15038388,0,0,0.14461098,1153.9452,225.25082)"
   inkscape:transform-center-x="0.21785875"
   inkscape:transform-center-y="-1.4469776" /><path
   inkscape:transform-center-y="-1.4469776"
   inkscape:transform-center-x="0.21785875"
   transform="matrix(0.15038388,0,0,0.14461098,1114.9129,319.22531)"
   d="m 385.5,148.9375 a 13.875,14.375 0 1 1 -27.75,0 13.875,14.375 0 1 1 27.75,0 z"
   sodipodi:ry="14.375"
   sodipodi:rx="13.875"
   sodipodi:cy="148.9375"
   sodipodi:cx="371.625"
   id="path4545-9"
   style="fill:none;stroke:#0000ff;stroke-width:0.19221952;stroke-linejoin:round;stroke-miterlimit:4;stroke-opacity:1;stroke-dasharray:none;display:inline"
   sodipodi:type="arc" /><path
   sodipodi:type="arc"
   style="fill:none;stroke:#0000ff;stroke-width:0.19221952;stroke-linejoin:round;stroke-miterlimit:4;stroke-opacity:1;stroke-dasharray:none;display:inline"
   id="path4547-0"
   sodipodi:cx="371.625"
   sodipodi:cy="148.9375"
   sodipodi:rx="13.875"
   sodipodi:ry="14.375"
   d="m 385.5,148.9375 a 13.875,14.375 0 1 1 -27.75,0 13.875,14.375 0 1 1 27.75,0 z"
   transform="matrix(0.15038388,0,0,0.14461098,1114.9836,421.04868)"
   inkscape:transform-center-x="0.21785875"
   inkscape:transform-center-y="-1.4469776" /><path
   inkscape:transform-center-y="-1.4469776"
   inkscape:transform-center-x="0.21785875"
   transform="matrix(0.15038388,0,0,0.14461098,1153.8745,515.1646)"
   d="m 385.5,148.9375 a 13.875,14.375 0 1 1 -27.75,0 13.875,14.375 0 1 1 27.75,0 z"
   sodipodi:ry="14.375"
   sodipodi:rx="13.875"
   sodipodi:cy="148.9375"
   sodipodi:cx="371.625"
   id="path4549-8"
   style="fill:none;stroke:#0000ff;stroke-width:0.19221952;stroke-linejoin:round;stroke-miterlimit:4;stroke-opacity:1;stroke-dasharray:none;display:inline"
   sodipodi:type="arc" /><path
   sodipodi:type="arc"
   style="fill:none;stroke:#0000ff;stroke-width:0.19221952;stroke-linejoin:round;stroke-miterlimit:4;stroke-opacity:1;stroke-dasharray:none;display:inline"
   id="path4551-8"
   sodipodi:cx="371.625"
   sodipodi:cy="148.9375"
   sodipodi:rx="13.875"
   sodipodi:ry="14.375"
   d="m 385.5,148.9375 a 13.875,14.375 0 1 1 -27.75,0 13.875,14.375 0 1 1 27.75,0 z"
   transform="matrix(0.15038388,0,0,0.14461098,1225.9614,586.97655)"
   inkscape:transform-center-x="0.21785875"
   inkscape:transform-center-y="-1.4469776" /><path
   inkscape:transform-center-y="-1.4469776"
   inkscape:transform-center-x="0.21785875"
   transform="matrix(0.15038388,0,0,0.14461098,1319.9379,625.70346)"
   d="m 385.5,148.9375 a 13.875,14.375 0 1 1 -27.75,0 13.875,14.375 0 1 1 27.75,0 z"
   sodipodi:ry="14.375"
   sodipodi:rx="13.875"
   sodipodi:cy="148.9375"
   sodipodi:cx="371.625"
   id="path4553-5"
   style="fill:none;stroke:#0000ff;stroke-width:0.19221952;stroke-linejoin:round;stroke-miterlimit:4;stroke-opacity:1;stroke-dasharray:none;display:inline"
   sodipodi:type="arc" /><path
   inkscape:connector-curvature="0"
   id="path4069-96"
   d="m 1467.1432,716.2966 c 0,203.51911 165.0059,368.5 368.525,368.5 203.5191,0 368.5,-164.98089 368.5,-368.5 l -141.75,0 c 0,125.24253 -101.5075,226.77501 -226.75,226.77501 -125.2425,0 -226.775,-101.53248 -226.775,-226.77501 l -141.75,0 z"
   style="fill:none;stroke:#0000ff;stroke-width:0.02834646;stroke-linejoin:round;stroke-miterlimit:4;stroke-opacity:1;stroke-dasharray:none;display:inline" /><path
   sodipodi:type="arc"
   style="fill:none;stroke:#0000ff;stroke-width:0.19221952;stroke-linejoin:round;stroke-miterlimit:4;stroke-opacity:1;stroke-dasharray:none;display:inline"
   id="path3939-3"
   sodipodi:cx="371.625"
   sodipodi:cy="148.9375"
   sodipodi:rx="13.875"
   sodipodi:ry="14.375"
   d="m 385.5,148.9375 a 13.875,14.375 0 1 1 -27.75,0 13.875,14.375 0 1 1 27.75,0 z"
   transform="matrix(0,-0.15038388,0.14461098,0,1558.3938,817.9584)"
   inkscape:transform-center-x="0.21785875"
   inkscape:transform-center-y="-1.4469776" /><path
   inkscape:transform-center-y="-1.4469776"
   inkscape:transform-center-x="0.21785875"
   transform="matrix(0,-0.15038388,0.14461098,0,1597.1231,912.02911)"
   d="m 385.5,148.9375 a 13.875,14.375 0 1 1 -27.75,0 13.875,14.375 0 1 1 27.75,0 z"
   sodipodi:ry="14.375"
   sodipodi:rx="13.875"
   sodipodi:cy="148.9375"
   sodipodi:cx="371.625"
   id="path4541-8"
   style="fill:none;stroke:#0000ff;stroke-width:0.19221952;stroke-linejoin:round;stroke-miterlimit:4;stroke-opacity:1;stroke-dasharray:none;display:inline"
   sodipodi:type="arc" /><path
   sodipodi:type="arc"
   style="fill:none;stroke:#0000ff;stroke-width:0.19221952;stroke-linejoin:round;stroke-miterlimit:4;stroke-opacity:1;stroke-dasharray:none;display:inline"
   id="path4543-5"
   sodipodi:cx="371.625"
   sodipodi:cy="148.9375"
   sodipodi:rx="13.875"
   sodipodi:ry="14.375"
   d="m 385.5,148.9375 a 13.875,14.375 0 1 1 -27.75,0 13.875,14.375 0 1 1 27.75,0 z"
   transform="matrix(0,-0.15038388,0.14461098,0,1668.9651,984.01258)"
   inkscape:transform-center-x="0.21785875"
   inkscape:transform-center-y="-1.4469776" /><path
   inkscape:transform-center-y="-1.4469776"
   inkscape:transform-center-x="0.21785875"
   transform="matrix(0,-0.15038388,0.14461098,0,1762.9396,1023.0449)"
   d="m 385.5,148.9375 a 13.875,14.375 0 1 1 -27.75,0 13.875,14.375 0 1 1 27.75,0 z"
   sodipodi:ry="14.375"
   sodipodi:rx="13.875"
   sodipodi:cy="148.9375"
   sodipodi:cx="371.625"
   id="path4545-61"
   style="fill:none;stroke:#0000ff;stroke-width:0.19221952;stroke-linejoin:round;stroke-miterlimit:4;stroke-opacity:1;stroke-dasharray:none;display:inline"
   sodipodi:type="arc" /><path
   sodipodi:type="arc"
   style="fill:none;stroke:#0000ff;stroke-width:0.19221952;stroke-linejoin:round;stroke-miterlimit:4;stroke-opacity:1;stroke-dasharray:none;display:inline"
   id="path4547-1"
   sodipodi:cx="371.625"
   sodipodi:cy="148.9375"
   sodipodi:rx="13.875"
   sodipodi:ry="14.375"
   d="m 385.5,148.9375 a 13.875,14.375 0 1 1 -27.75,0 13.875,14.375 0 1 1 27.75,0 z"
   transform="matrix(0,-0.15038388,0.14461098,0,1864.763,1022.9742)"
   inkscape:transform-center-x="0.21785875"
   inkscape:transform-center-y="-1.4469776" /><path
   inkscape:transform-center-y="-1.4469776"
   inkscape:transform-center-x="0.21785875"
   transform="matrix(0,-0.15038388,0.14461098,0,1958.8789,984.08329)"
   d="m 385.5,148.9375 a 13.875,14.375 0 1 1 -27.75,0 13.875,14.375 0 1 1 27.75,0 z"
   sodipodi:ry="14.375"
   sodipodi:rx="13.875"
   sodipodi:cy="148.9375"
   sodipodi:cx="371.625"
   id="path4549-5"
   style="fill:none;stroke:#0000ff;stroke-width:0.19221952;stroke-linejoin:round;stroke-miterlimit:4;stroke-opacity:1;stroke-dasharray:none;display:inline"
   sodipodi:type="arc" /><path
   sodipodi:type="arc"
   style="fill:none;stroke:#0000ff;stroke-width:0.19221952;stroke-linejoin:round;stroke-miterlimit:4;stroke-opacity:1;stroke-dasharray:none;display:inline"
   id="path4551-9"
   sodipodi:cx="371.625"
   sodipodi:cy="148.9375"
   sodipodi:rx="13.875"
   sodipodi:ry="14.375"
   d="m 385.5,148.9375 a 13.875,14.375 0 1 1 -27.75,0 13.875,14.375 0 1 1 27.75,0 z"
   transform="matrix(0,-0.15038388,0.14461098,0,2030.6909,911.99642)"
   inkscape:transform-center-x="0.21785875"
   inkscape:transform-center-y="-1.4469776" /><path
   inkscape:transform-center-y="-1.4469776"
   inkscape:transform-center-x="0.21785875"
   transform="matrix(0,-0.15038388,0.14461098,0,2069.4178,818.01995)"
   d="m 385.5,148.9375 a 13.875,14.375 0 1 1 -27.75,0 13.875,14.375 0 1 1 27.75,0 z"
   sodipodi:ry="14.375"
   sodipodi:rx="13.875"
   sodipodi:cy="148.9375"
   sodipodi:cx="371.625"
   id="path4553-8"
   style="fill:none;stroke:#0000ff;stroke-width:0.19221952;stroke-linejoin:round;stroke-miterlimit:4;stroke-opacity:1;stroke-dasharray:none;display:inline"
   sodipodi:type="arc" /></svg>