<?xml version="1.0" encoding="UTF-8" standalone="no"?>
<!-- Generator: Adobe Illustrator 9.0, SVG Export Plug-In  -->

<svg
   xmlns:dc="http://purl.org/dc/elements/1.1/"
   xmlns:cc="http://creativecommons.org/ns#"
   xmlns:rdf="http://www.w3.org/1999/02/22-rdf-syntax-ns#"
   xmlns:svg="http://www.w3.org/2000/svg"
   xmlns="http://www.w3.org/2000/svg"
   xmlns:sodipodi="http://sodipodi.sourceforge.net/DTD/sodipodi-0.dtd"
   xmlns:inkscape="http://www.inkscape.org/namespaces/inkscape"
   width="1396.0651"
   height="1396.0625"
   viewBox="0 0 1116.852 1116.85"
   xml:space="preserve"
   id="svg2338"
   sodipodi:version="0.32"
   inkscape:version="0.48.0 r9654"
   sodipodi:docname="P2.svg"
   inkscape:output_extension="org.inkscape.output.svg.inkscape"
   version="1.1"><metadata
   id="metadata2382"><rdf:RDF><cc:Work
       rdf:about=""><dc:format>image/svg+xml</dc:format><dc:type
         rdf:resource="http://purl.org/dc/dcmitype/StillImage" /><dc:title></dc:title></cc:Work></rdf:RDF></metadata><defs
   id="defs2380" /><sodipodi:namedview
   inkscape:window-height="720"
   inkscape:window-width="1280"
   inkscape:pageshadow="2"
   inkscape:pageopacity="0.0"
   guidetolerance="10.0"
   gridtolerance="10.0"
   objecttolerance="10.0"
   borderopacity="1.0"
   bordercolor="#666666"
   pagecolor="#ffffff"
   id="base"
   inkscape:zoom="0.39980945"
   inkscape:cx="318.08443"
   inkscape:cy="873.75194"
   inkscape:window-x="78"
   inkscape:window-y="25"
   inkscape:current-layer="Layer_x0020_1"
   showgrid="true"
   units="mm"
   inkscape:document-units="mm"
   inkscape:snap-global="true"
   inkscape:window-maximized="0"><inkscape:grid
     type="xygrid"
     id="grid3007"
     empspacing="5"
     visible="true"
     enabled="true"
     snapvisiblegridlinesonly="true"
     units="mm"
     spacingx="1mm"
     spacingy="1mm" /></sodipodi:namedview>
	<g
   id="Layer_x0020_1"
   style="fill:#f6921e;fill-rule:nonzero;stroke:#000000;stroke-miterlimit:4"
   transform="translate(0,-1.9382639e-4)">
		<path
   style="stroke:none"
   d="M 1116.852,1116.85 H 0 V 0 h 1116.852 v 1116.85 z"
   id="path2341"
   inkscape:connector-curvature="0" />
		<path
   style="fill:#ffffff;stroke:none"
   d="M 1102.678,1102.678 H 14.173 V 14.173 h 1088.504 v 1088.504 z"
   id="path2343"
   inkscape:connector-curvature="0" />
		<g
   style="stroke:none"
   id="g2345">
			<path
   d="m 501.983,555.258 c 0.873,0.571 2.418,1.175 3.896,1.175 2.149,0 3.157,-1.075 3.157,-2.418 0,-1.411 -0.84,-2.183 -3.023,-2.989 -2.922,-1.041 -4.299,-2.653 -4.299,-4.601 0,-2.62 2.116,-4.769 5.609,-4.769 1.646,0 3.09,0.47 3.997,1.008 l -0.739,2.149 c -0.638,-0.403 -1.814,-0.94 -3.325,-0.94 -1.746,0 -2.72,1.007 -2.72,2.216 0,1.344 0.974,1.948 3.09,2.754 2.821,1.075 4.265,2.485 4.265,4.904 0,2.854 -2.216,4.903 -6.079,4.903 -1.78,0 -3.426,-0.47 -4.568,-1.142 l 0.739,-2.25 z"
   id="path2347"
   inkscape:connector-curvature="0" />
			<path
   d="m 527.102,554.384 c 0,1.411 0.067,2.788 0.269,3.896 h -2.687 l -0.235,-2.049 h -0.101 c -0.907,1.276 -2.653,2.418 -4.971,2.418 -3.292,0 -4.971,-2.317 -4.971,-4.668 0,-3.929 3.493,-6.079 9.773,-6.045 v -0.335 c 0,-1.344 -0.37,-3.762 -3.694,-3.762 -1.511,0 -3.09,0.47 -4.232,1.209 l -0.671,-1.948 c 1.343,-0.873 3.291,-1.444 5.34,-1.444 4.971,0 6.179,3.392 6.179,6.65 v 6.079 z m -2.855,-4.399 c -3.224,-0.067 -6.885,0.504 -6.885,3.661 0,1.915 1.276,2.821 2.788,2.821 2.116,0 3.459,-1.343 3.929,-2.72 0.101,-0.302 0.168,-0.638 0.168,-0.94 v -2.821 z"
   id="path2349"
   inkscape:connector-curvature="0" />
			<path
   d="m 532.17,558.28 v -14.005 h -2.284 v -2.25 h 2.284 v -0.772 c 0,-2.284 0.504,-4.366 1.881,-5.676 1.108,-1.075 2.586,-1.511 3.963,-1.511 1.041,0 1.948,0.235 2.519,0.47 l -0.402,2.284 c -0.437,-0.202 -1.041,-0.37 -1.881,-0.37 -2.52,0 -3.157,2.217 -3.157,4.702 v 0.873 h 3.93 v 2.25 h -3.93 v 14.005 h -2.922 z"
   id="path2351"
   inkscape:connector-curvature="0" />
			<path
   d="m 542.882,550.69 c 0.066,3.997 2.619,5.643 5.574,5.643 2.116,0 3.393,-0.37 4.501,-0.84 l 0.504,2.116 c -1.041,0.47 -2.821,1.041 -5.407,1.041 -5.004,0 -7.993,-3.325 -7.993,-8.228 0,-4.903 2.888,-8.766 7.624,-8.766 5.306,0 6.717,4.668 6.717,7.657 0,0.604 -0.067,1.075 -0.102,1.377 h -11.418 z m 8.664,-2.116 c 0.034,-1.881 -0.772,-4.803 -4.097,-4.803 -2.989,0 -4.299,2.754 -4.534,4.803 h 8.631 z"
   id="path2353"
   inkscape:connector-curvature="0" />
			<path
   d="m 576.595,554.384 c 0,1.411 0.067,2.788 0.269,3.896 h -2.687 l -0.235,-2.049 h -0.101 c -0.906,1.276 -2.653,2.418 -4.971,2.418 -3.291,0 -4.97,-2.317 -4.97,-4.668 0,-3.929 3.492,-6.079 9.772,-6.045 v -0.335 c 0,-1.344 -0.369,-3.762 -3.694,-3.762 -1.511,0 -3.09,0.47 -4.231,1.209 l -0.672,-1.948 c 1.344,-0.873 3.292,-1.444 5.34,-1.444 4.971,0 6.18,3.392 6.18,6.65 v 6.079 z m -2.855,-4.399 c -3.224,-0.067 -6.885,0.504 -6.885,3.661 0,1.915 1.276,2.821 2.787,2.821 2.116,0 3.46,-1.343 3.93,-2.72 0.101,-0.302 0.168,-0.638 0.168,-0.94 v -2.821 z"
   id="path2355"
   inkscape:connector-curvature="0" />
			<path
   d="m 581.361,547.097 c 0,-1.915 -0.034,-3.56 -0.135,-5.071 h 2.586 l 0.101,3.19 h 0.135 c 0.738,-2.183 2.519,-3.56 4.5,-3.56 0.336,0 0.571,0.034 0.84,0.101 v 2.787 c -0.303,-0.067 -0.604,-0.101 -1.008,-0.101 -2.082,0 -3.56,1.579 -3.963,3.795 -0.067,0.403 -0.135,0.874 -0.135,1.377 v 8.665 h -2.921 v -11.184 z"
   id="path2357"
   inkscape:connector-curvature="0" />
			<path
   d="m 593.651,550.69 c 0.066,3.997 2.619,5.643 5.574,5.643 2.116,0 3.393,-0.37 4.501,-0.84 l 0.504,2.116 c -1.041,0.47 -2.821,1.041 -5.407,1.041 -5.004,0 -7.993,-3.325 -7.993,-8.228 0,-4.903 2.888,-8.766 7.624,-8.766 5.306,0 6.717,4.668 6.717,7.657 0,0.604 -0.067,1.075 -0.102,1.377 h -11.418 z m 8.664,-2.116 c 0.034,-1.881 -0.772,-4.803 -4.097,-4.803 -2.989,0 -4.299,2.754 -4.534,4.803 h 8.631 z"
   id="path2359"
   inkscape:connector-curvature="0" />
			<path
   d="m 620.246,554.384 c 0,1.411 0.067,2.788 0.269,3.896 h -2.687 l -0.235,-2.049 h -0.101 c -0.906,1.276 -2.653,2.418 -4.971,2.418 -3.291,0 -4.97,-2.317 -4.97,-4.668 0,-3.929 3.492,-6.079 9.772,-6.045 v -0.335 c 0,-1.344 -0.369,-3.762 -3.694,-3.762 -1.511,0 -3.09,0.47 -4.231,1.209 l -0.672,-1.948 c 1.344,-0.873 3.292,-1.444 5.34,-1.444 4.971,0 6.18,3.392 6.18,6.65 v 6.079 z m -2.854,-4.399 c -3.224,-0.067 -6.885,0.504 -6.885,3.661 0,1.915 1.276,2.821 2.787,2.821 2.116,0 3.46,-1.343 3.93,-2.72 0.101,-0.302 0.168,-0.638 0.168,-0.94 v -2.821 z"
   id="path2361"
   inkscape:connector-curvature="0" />
		</g>
		
		
		
		
	<path
   style="fill:none;stroke:#000000;stroke-width:1px;stroke-linecap:butt;stroke-linejoin:miter;stroke-opacity:1"
   d="m 637.79528,120.47195 0,1062.99215"
   id="path3022"
   inkscape:connector-curvature="0"
   transform="matrix(0.8,0,0,0.8,-2.5390625e-5,1.9382639e-4)" /><path
   style="fill:none;stroke:#000000;stroke-width:0.78778553px;stroke-linecap:butt;stroke-linejoin:miter;stroke-opacity:1"
   d="m 56.692888,521.5746 907.086602,0"
   id="path3024"
   inkscape:connector-curvature="0" /><path
   style="fill:none;stroke:#000000;stroke-width:0.86666662px;stroke-linecap:butt;stroke-linejoin:miter;stroke-opacity:1"
   d="M 878.74013,153.07067 141.73225,890.07851"
   id="path3026"
   inkscape:connector-curvature="0" /><path
   style="fill:none;stroke:#000000;stroke-width:1px;stroke-linecap:butt;stroke-linejoin:miter;stroke-opacity:1"
   d="M 177.16535,191.33809 1098.4252,1112.5979"
   id="path3028"
   inkscape:connector-curvature="0"
   transform="matrix(0.8,0,0,0.8,-2.5390625e-5,1.9382639e-4)" /><path
   inkscape:connector-curvature="0"
   id="path3030"
   d="M 347.5204,128.74394 672.95199,914.40529"
   style="fill:none;stroke:#000000;stroke-width:0.80000001px;stroke-linecap:butt;stroke-linejoin:miter;stroke-opacity:1" /><path
   inkscape:connector-curvature="0"
   id="path3032"
   d="M 672.95199,128.74394 347.5204,914.40529"
   style="fill:none;stroke:#000000;stroke-width:0.80000001px;stroke-linecap:butt;stroke-linejoin:miter;stroke-opacity:1" /><path
   inkscape:connector-curvature="0"
   id="path3040"
   d="M 91.216816,695.13811 929.25556,348.01109"
   style="fill:none;stroke:#000000;stroke-width:0.78778553px;stroke-linecap:butt;stroke-linejoin:miter;stroke-opacity:1" /><path
   inkscape:connector-curvature="0"
   id="path3042"
   d="M 91.216816,348.01109 929.25556,695.13811"
   style="fill:none;stroke:#000000;stroke-width:0.78778553px;stroke-linecap:butt;stroke-linejoin:miter;stroke-opacity:1" /><path
   sodipodi:type="arc"
   style="fill:#f9f9f9;stroke-linejoin:round"
   id="path3084"
   sodipodi:cx="637.79529"
   sodipodi:cy="651.96802"
   sodipodi:rx="354.33072"
   sodipodi:ry="354.33072"
   d="m 992.12601,651.96802 a 354.33072,354.33072 0 1 1 -708.66144,0 354.33072,354.33072 0 1 1 708.66144,0 z"
   transform="matrix(0.87999997,0,0,0.87999997,-51.023642,-52.157235)" /><g
   id="g3086"
   transform="translate(305.79775,122.60694)"
   style="opacity:0.71078431;fill:#cccccc"><path
     transform="matrix(0.8,0,0,0.8,-2.5390625e-5,1.9382639e-4)"
     d="m 177.16535,138.18849 c 0,39.13829 -31.72785,70.86614 -70.86614,70.86614 -39.13829,0 -70.866143,-31.72785 -70.866143,-70.86614 0,-39.138288 31.727853,-70.86614 70.866143,-70.86614 39.13829,0 70.86614,31.727852 70.86614,70.86614 z"
     sodipodi:ry="70.866142"
     sodipodi:rx="70.866142"
     sodipodi:cy="138.18849"
     sodipodi:cx="106.29921"
     id="path3088"
     style="fill:#cccccc;stroke-linejoin:round"
     sodipodi:type="arc" /><path
     transform="matrix(0.8,0,0,0.8,-2.5390625e-5,1.9382639e-4)"
     inkscape:connector-curvature="0"
     id="path3090"
     d="m 88.582677,120.47195 35.433073,35.43307"
     style="fill:#cccccc;stroke:#000000;stroke-width:1px;stroke-linecap:butt;stroke-linejoin:miter;stroke-opacity:1" /><path
     transform="matrix(0.8,0,0,0.8,-2.5390625e-5,1.9382639e-4)"
     inkscape:connector-curvature="0"
     id="path3092"
     d="M 124.01575,120.47195 88.582677,155.90502"
     style="fill:#cccccc;stroke:#000000;stroke-width:1px;stroke-linecap:butt;stroke-linejoin:miter;stroke-opacity:1" /></g><g
   style="opacity:0.71078431;fill:#cccccc"
   transform="translate(425.19685,99.212593)"
   id="g3862"><path
     sodipodi:type="arc"
     style="fill:#cccccc;stroke-linejoin:round"
     id="path3864"
     sodipodi:cx="106.29921"
     sodipodi:cy="138.18849"
     sodipodi:rx="70.866142"
     sodipodi:ry="70.866142"
     d="m 177.16535,138.18849 c 0,39.13829 -31.72785,70.86614 -70.86614,70.86614 -39.13829,0 -70.866143,-31.72785 -70.866143,-70.86614 0,-39.138288 31.727853,-70.86614 70.866143,-70.86614 39.13829,0 70.86614,31.727852 70.86614,70.86614 z"
     transform="matrix(0.8,0,0,0.8,-2.5390625e-5,1.9382639e-4)" /><path
     style="fill:#cccccc;stroke:#000000;stroke-width:1px;stroke-linecap:butt;stroke-linejoin:miter;stroke-opacity:1"
     d="m 88.582677,120.47195 35.433073,35.43307"
     id="path3866"
     inkscape:connector-curvature="0"
     transform="matrix(0.8,0,0,0.8,-2.5390625e-5,1.9382639e-4)" /><path
     style="fill:#cccccc;stroke:#000000;stroke-width:1px;stroke-linecap:butt;stroke-linejoin:miter;stroke-opacity:1"
     d="M 124.01575,120.47195 88.582677,155.90502"
     id="path3868"
     inkscape:connector-curvature="0"
     transform="matrix(0.8,0,0,0.8,-2.5390625e-5,1.9382639e-4)" /></g><g
   id="g3870"
   transform="translate(113.38583,411.02362)"
   style="opacity:0.71078431;fill:#cccccc"><path
     transform="matrix(0.8,0,0,0.8,-2.5390625e-5,1.9382639e-4)"
     d="m 177.16535,138.18849 c 0,39.13829 -31.72785,70.86614 -70.86614,70.86614 -39.13829,0 -70.866143,-31.72785 -70.866143,-70.86614 0,-39.138288 31.727853,-70.86614 70.866143,-70.86614 39.13829,0 70.86614,31.727852 70.86614,70.86614 z"
     sodipodi:ry="70.866142"
     sodipodi:rx="70.866142"
     sodipodi:cy="138.18849"
     sodipodi:cx="106.29921"
     id="path3872"
     style="fill:#cccccc;stroke-linejoin:round"
     sodipodi:type="arc" /><path
     transform="matrix(0.8,0,0,0.8,-2.5390625e-5,1.9382639e-4)"
     inkscape:connector-curvature="0"
     id="path3874"
     d="m 88.582677,120.47195 35.433073,35.43307"
     style="fill:#cccccc;stroke:#000000;stroke-width:1px;stroke-linecap:butt;stroke-linejoin:miter;stroke-opacity:1" /><path
     transform="matrix(0.8,0,0,0.8,-2.5390625e-5,1.9382639e-4)"
     inkscape:connector-curvature="0"
     id="path3876"
     d="M 124.01575,120.47195 88.582677,155.90502"
     style="fill:#cccccc;stroke:#000000;stroke-width:1px;stroke-linecap:butt;stroke-linejoin:miter;stroke-opacity:1" /></g><g
   id="g3878"
   transform="translate(737.00788,411.02362)"
   style="opacity:0.71078431;fill:#cccccc"><path
     transform="matrix(0.8,0,0,0.8,-2.5390625e-5,1.9382639e-4)"
     d="m 177.16535,138.18849 c 0,39.13829 -31.72785,70.86614 -70.86614,70.86614 -39.13829,0 -70.866143,-31.72785 -70.866143,-70.86614 0,-39.138288 31.727853,-70.86614 70.866143,-70.86614 39.13829,0 70.86614,31.727852 70.86614,70.86614 z"
     sodipodi:ry="70.866142"
     sodipodi:rx="70.866142"
     sodipodi:cy="138.18849"
     sodipodi:cx="106.29921"
     id="path3880"
     style="fill:#cccccc;stroke-linejoin:round"
     sodipodi:type="arc" /><path
     transform="matrix(0.8,0,0,0.8,-2.5390625e-5,1.9382639e-4)"
     inkscape:connector-curvature="0"
     id="path3882"
     d="m 88.582677,120.47195 35.433073,35.43307"
     style="fill:#cccccc;stroke:#000000;stroke-width:1px;stroke-linecap:butt;stroke-linejoin:miter;stroke-opacity:1" /><path
     transform="matrix(0.8,0,0,0.8,-2.5390625e-5,1.9382639e-4)"
     inkscape:connector-curvature="0"
     id="path3884"
     d="M 124.01575,120.47195 88.582677,155.90502"
     style="fill:#cccccc;stroke:#000000;stroke-width:1px;stroke-linecap:butt;stroke-linejoin:miter;stroke-opacity:1" /></g><g
   style="opacity:0.71078431;fill:#cccccc"
   transform="translate(425.19685,722.83464)"
   id="g3886"><path
     sodipodi:type="arc"
     style="fill:#cccccc;stroke-linejoin:round"
     id="path3888"
     sodipodi:cx="106.29921"
     sodipodi:cy="138.18849"
     sodipodi:rx="70.866142"
     sodipodi:ry="70.866142"
     d="m 177.16535,138.18849 c 0,39.13829 -31.72785,70.86614 -70.86614,70.86614 -39.13829,0 -70.866143,-31.72785 -70.866143,-70.86614 0,-39.138288 31.727853,-70.86614 70.866143,-70.86614 39.13829,0 70.86614,31.727852 70.86614,70.86614 z"
     transform="matrix(0.8,0,0,0.8,-2.5390625e-5,1.9382639e-4)" /><path
     style="fill:#cccccc;stroke:#000000;stroke-width:1px;stroke-linecap:butt;stroke-linejoin:miter;stroke-opacity:1"
     d="m 88.582677,120.47195 35.433073,35.43307"
     id="path3890"
     inkscape:connector-curvature="0"
     transform="matrix(0.8,0,0,0.8,-2.5390625e-5,1.9382639e-4)" /><path
     style="fill:#cccccc;stroke:#000000;stroke-width:1px;stroke-linecap:butt;stroke-linejoin:miter;stroke-opacity:1"
     d="M 124.01575,120.47195 88.582677,155.90502"
     id="path3892"
     inkscape:connector-curvature="0"
     transform="matrix(0.8,0,0,0.8,-2.5390625e-5,1.9382639e-4)" /></g><g
   style="opacity:0.71078431;fill:#cccccc"
   transform="translate(204.81016,631.61275)"
   id="g3894"><path
     sodipodi:type="arc"
     style="fill:#cccccc;stroke-linejoin:round"
     id="path3896"
     sodipodi:cx="106.29921"
     sodipodi:cy="138.18849"
     sodipodi:rx="70.866142"
     sodipodi:ry="70.866142"
     d="m 177.16535,138.18849 c 0,39.13829 -31.72785,70.86614 -70.86614,70.86614 -39.13829,0 -70.866143,-31.72785 -70.866143,-70.86614 0,-39.138288 31.727853,-70.86614 70.866143,-70.86614 39.13829,0 70.86614,31.727852 70.86614,70.86614 z"
     transform="matrix(0.8,0,0,0.8,-2.5390625e-5,1.9382639e-4)" /><path
     style="fill:#cccccc;stroke:#000000;stroke-width:1px;stroke-linecap:butt;stroke-linejoin:miter;stroke-opacity:1"
     d="m 88.582677,120.47195 35.433073,35.43307"
     id="path3898"
     inkscape:connector-curvature="0"
     transform="matrix(0.8,0,0,0.8,-2.5390625e-5,1.9382639e-4)" /><path
     style="fill:#cccccc;stroke:#000000;stroke-width:1px;stroke-linecap:butt;stroke-linejoin:miter;stroke-opacity:1"
     d="M 124.01575,120.47195 88.582677,155.90502"
     id="path3900"
     inkscape:connector-curvature="0"
     transform="matrix(0.8,0,0,0.8,-2.5390625e-5,1.9382639e-4)" /></g><g
   id="g3902"
   transform="translate(137.04206,530.27142)"
   style="opacity:0.71078431;fill:#cccccc"><path
     transform="matrix(0.8,0,0,0.8,-2.5390625e-5,1.9382639e-4)"
     d="m 177.16535,138.18849 c 0,39.13829 -31.72785,70.86614 -70.86614,70.86614 -39.13829,0 -70.866143,-31.72785 -70.866143,-70.86614 0,-39.138288 31.727853,-70.86614 70.866143,-70.86614 39.13829,0 70.86614,31.727852 70.86614,70.86614 z"
     sodipodi:ry="70.866142"
     sodipodi:rx="70.866142"
     sodipodi:cy="138.18849"
     sodipodi:cx="106.29921"
     id="path3904"
     style="fill:#cccccc;stroke-linejoin:round"
     sodipodi:type="arc" /><path
     transform="matrix(0.8,0,0,0.8,-2.5390625e-5,1.9382639e-4)"
     inkscape:connector-curvature="0"
     id="path3906"
     d="m 88.582677,120.47195 35.433073,35.43307"
     style="fill:#cccccc;stroke:#000000;stroke-width:1px;stroke-linecap:butt;stroke-linejoin:miter;stroke-opacity:1" /><path
     transform="matrix(0.8,0,0,0.8,-2.5390625e-5,1.9382639e-4)"
     inkscape:connector-curvature="0"
     id="path3908"
     d="M 124.01575,120.47195 88.582677,155.90502"
     style="fill:#cccccc;stroke:#000000;stroke-width:1px;stroke-linecap:butt;stroke-linejoin:miter;stroke-opacity:1" /></g><g
   style="opacity:0.71078431;fill:#cccccc"
   transform="translate(137.07241,291.686)"
   id="g3910"><path
     sodipodi:type="arc"
     style="fill:#cccccc;stroke-linejoin:round"
     id="path3912"
     sodipodi:cx="106.29921"
     sodipodi:cy="138.18849"
     sodipodi:rx="70.866142"
     sodipodi:ry="70.866142"
     d="m 177.16535,138.18849 c 0,39.13829 -31.72785,70.86614 -70.86614,70.86614 -39.13829,0 -70.866143,-31.72785 -70.866143,-70.86614 0,-39.138288 31.727853,-70.86614 70.866143,-70.86614 39.13829,0 70.86614,31.727852 70.86614,70.86614 z"
     transform="matrix(0.8,0,0,0.8,-2.5390625e-5,1.9382639e-4)" /><path
     style="fill:#cccccc;stroke:#000000;stroke-width:1px;stroke-linecap:butt;stroke-linejoin:miter;stroke-opacity:1"
     d="m 88.582677,120.47195 35.433073,35.43307"
     id="path3914"
     inkscape:connector-curvature="0"
     transform="matrix(0.8,0,0,0.8,-2.5390625e-5,1.9382639e-4)" /><path
     style="fill:#cccccc;stroke:#000000;stroke-width:1px;stroke-linecap:butt;stroke-linejoin:miter;stroke-opacity:1"
     d="M 124.01575,120.47195 88.582677,155.90502"
     id="path3916"
     inkscape:connector-curvature="0"
     transform="matrix(0.8,0,0,0.8,-2.5390625e-5,1.9382639e-4)" /></g><g
   id="g3918"
   transform="translate(204.98701,190.52154)"
   style="opacity:0.71078431;fill:#cccccc"><path
     transform="matrix(0.8,0,0,0.8,-2.5390625e-5,1.9382639e-4)"
     d="m 177.16535,138.18849 c 0,39.13829 -31.72785,70.86614 -70.86614,70.86614 -39.13829,0 -70.866143,-31.72785 -70.866143,-70.86614 0,-39.138288 31.727853,-70.86614 70.866143,-70.86614 39.13829,0 70.86614,31.727852 70.86614,70.86614 z"
     sodipodi:ry="70.866142"
     sodipodi:rx="70.866142"
     sodipodi:cy="138.18849"
     sodipodi:cx="106.29921"
     id="path3920"
     style="fill:#cccccc;stroke-linejoin:round"
     sodipodi:type="arc" /><path
     transform="matrix(0.8,0,0,0.8,-2.5390625e-5,1.9382639e-4)"
     inkscape:connector-curvature="0"
     id="path3922"
     d="m 88.582677,120.47195 35.433073,35.43307"
     style="fill:#cccccc;stroke:#000000;stroke-width:1px;stroke-linecap:butt;stroke-linejoin:miter;stroke-opacity:1" /><path
     transform="matrix(0.8,0,0,0.8,-2.5390625e-5,1.9382639e-4)"
     inkscape:connector-curvature="0"
     id="path3924"
     d="M 124.01575,120.47195 88.582677,155.90502"
     style="fill:#cccccc;stroke:#000000;stroke-width:1px;stroke-linecap:butt;stroke-linejoin:miter;stroke-opacity:1" /></g><g
   style="opacity:0.71078431;fill:#cccccc"
   transform="translate(713.28537,291.686)"
   id="g3926"><path
     sodipodi:type="arc"
     style="fill:#cccccc;stroke-linejoin:round"
     id="path3928"
     sodipodi:cx="106.29921"
     sodipodi:cy="138.18849"
     sodipodi:rx="70.866142"
     sodipodi:ry="70.866142"
     d="m 177.16535,138.18849 c 0,39.13829 -31.72785,70.86614 -70.86614,70.86614 -39.13829,0 -70.866143,-31.72785 -70.866143,-70.86614 0,-39.138288 31.727853,-70.86614 70.866143,-70.86614 39.13829,0 70.86614,31.727852 70.86614,70.86614 z"
     transform="matrix(0.8,0,0,0.8,-2.5390625e-5,1.9382639e-4)" /><path
     style="fill:#cccccc;stroke:#000000;stroke-width:1px;stroke-linecap:butt;stroke-linejoin:miter;stroke-opacity:1"
     d="m 88.582677,120.47195 35.433073,35.43307"
     id="path3930"
     inkscape:connector-curvature="0"
     transform="matrix(0.8,0,0,0.8,-2.5390625e-5,1.9382639e-4)" /><path
     style="fill:#cccccc;stroke:#000000;stroke-width:1px;stroke-linecap:butt;stroke-linejoin:miter;stroke-opacity:1"
     d="M 124.01575,120.47195 88.582677,155.90502"
     id="path3932"
     inkscape:connector-curvature="0"
     transform="matrix(0.8,0,0,0.8,-2.5390625e-5,1.9382639e-4)" /></g><g
   id="g3934"
   transform="translate(645.72449,190.52154)"
   style="opacity:0.71078431;fill:#cccccc"><path
     transform="matrix(0.8,0,0,0.8,-2.5390625e-5,1.9382639e-4)"
     d="m 177.16535,138.18849 c 0,39.13829 -31.72785,70.86614 -70.86614,70.86614 -39.13829,0 -70.866143,-31.72785 -70.866143,-70.86614 0,-39.138288 31.727853,-70.86614 70.866143,-70.86614 39.13829,0 70.86614,31.727852 70.86614,70.86614 z"
     sodipodi:ry="70.866142"
     sodipodi:rx="70.866142"
     sodipodi:cy="138.18849"
     sodipodi:cx="106.29921"
     id="path3936"
     style="fill:#cccccc;stroke-linejoin:round"
     sodipodi:type="arc" /><path
     transform="matrix(0.8,0,0,0.8,-2.5390625e-5,1.9382639e-4)"
     inkscape:connector-curvature="0"
     id="path3938"
     d="m 88.582677,120.47195 35.433073,35.43307"
     style="fill:#cccccc;stroke:#000000;stroke-width:1px;stroke-linecap:butt;stroke-linejoin:miter;stroke-opacity:1" /><path
     transform="matrix(0.8,0,0,0.8,-2.5390625e-5,1.9382639e-4)"
     inkscape:connector-curvature="0"
     id="path3940"
     d="M 124.01575,120.47195 88.582677,155.90502"
     style="fill:#cccccc;stroke:#000000;stroke-width:1px;stroke-linecap:butt;stroke-linejoin:miter;stroke-opacity:1" /></g><g
   style="opacity:0.71078431;fill:#cccccc"
   transform="translate(544.52969,122.81414)"
   id="g3942"><path
     sodipodi:type="arc"
     style="fill:#cccccc;stroke-linejoin:round"
     id="path3944"
     sodipodi:cx="106.29921"
     sodipodi:cy="138.18849"
     sodipodi:rx="70.866142"
     sodipodi:ry="70.866142"
     d="m 177.16535,138.18849 c 0,39.13829 -31.72785,70.86614 -70.86614,70.86614 -39.13829,0 -70.866143,-31.72785 -70.866143,-70.86614 0,-39.138288 31.727853,-70.86614 70.866143,-70.86614 39.13829,0 70.86614,31.727852 70.86614,70.86614 z"
     transform="matrix(0.8,0,0,0.8,-2.5390625e-5,1.9382639e-4)" /><path
     style="fill:#cccccc;stroke:#000000;stroke-width:1px;stroke-linecap:butt;stroke-linejoin:miter;stroke-opacity:1"
     d="m 88.582677,120.47195 35.433073,35.43307"
     id="path3946"
     inkscape:connector-curvature="0"
     transform="matrix(0.8,0,0,0.8,-2.5390625e-5,1.9382639e-4)" /><path
     style="fill:#cccccc;stroke:#000000;stroke-width:1px;stroke-linecap:butt;stroke-linejoin:miter;stroke-opacity:1"
     d="M 124.01575,120.47195 88.582677,155.90502"
     id="path3948"
     inkscape:connector-curvature="0"
     transform="matrix(0.8,0,0,0.8,-2.5390625e-5,1.9382639e-4)" /></g><g
   id="g3950"
   transform="translate(305.79776,699.35049)"
   style="opacity:0.71078431;fill:#cccccc"><path
     transform="matrix(0.8,0,0,0.8,-2.5390625e-5,1.9382639e-4)"
     d="m 177.16535,138.18849 c 0,39.13829 -31.72785,70.86614 -70.86614,70.86614 -39.13829,0 -70.866143,-31.72785 -70.866143,-70.86614 0,-39.138288 31.727853,-70.86614 70.866143,-70.86614 39.13829,0 70.86614,31.727852 70.86614,70.86614 z"
     sodipodi:ry="70.866142"
     sodipodi:rx="70.866142"
     sodipodi:cy="138.18849"
     sodipodi:cx="106.29921"
     id="path3952"
     style="fill:#cccccc;stroke-linejoin:round"
     sodipodi:type="arc" /><path
     transform="matrix(0.8,0,0,0.8,-2.5390625e-5,1.9382639e-4)"
     inkscape:connector-curvature="0"
     id="path3954"
     d="m 88.582677,120.47195 35.433073,35.43307"
     style="fill:#cccccc;stroke:#000000;stroke-width:1px;stroke-linecap:butt;stroke-linejoin:miter;stroke-opacity:1" /><path
     transform="matrix(0.8,0,0,0.8,-2.5390625e-5,1.9382639e-4)"
     inkscape:connector-curvature="0"
     id="path3956"
     d="M 124.01575,120.47195 88.582677,155.90502"
     style="fill:#cccccc;stroke:#000000;stroke-width:1px;stroke-linecap:butt;stroke-linejoin:miter;stroke-opacity:1" /></g><g
   style="opacity:0.71078431;fill:#cccccc"
   transform="translate(544.56004,699.17363)"
   id="g3958"><path
     sodipodi:type="arc"
     style="fill:#cccccc;stroke-linejoin:round"
     id="path3960"
     sodipodi:cx="106.29921"
     sodipodi:cy="138.18849"
     sodipodi:rx="70.866142"
     sodipodi:ry="70.866142"
     d="m 177.16535,138.18849 c 0,39.13829 -31.72785,70.86614 -70.86614,70.86614 -39.13829,0 -70.866143,-31.72785 -70.866143,-70.86614 0,-39.138288 31.727853,-70.86614 70.866143,-70.86614 39.13829,0 70.86614,31.727852 70.86614,70.86614 z"
     transform="matrix(0.8,0,0,0.8,-2.5390625e-5,1.9382639e-4)" /><path
     style="fill:#cccccc;stroke:#000000;stroke-width:1px;stroke-linecap:butt;stroke-linejoin:miter;stroke-opacity:1"
     d="m 88.582677,120.47195 35.433073,35.43307"
     id="path3962"
     inkscape:connector-curvature="0"
     transform="matrix(0.8,0,0,0.8,-2.5390625e-5,1.9382639e-4)" /><path
     style="fill:#cccccc;stroke:#000000;stroke-width:1px;stroke-linecap:butt;stroke-linejoin:miter;stroke-opacity:1"
     d="M 124.01575,120.47195 88.582677,155.90502"
     id="path3964"
     inkscape:connector-curvature="0"
     transform="matrix(0.8,0,0,0.8,-2.5390625e-5,1.9382639e-4)" /></g><g
   id="g3966"
   transform="translate(713.6391,530.09457)"
   style="opacity:0.71078431;fill:#cccccc"><path
     transform="matrix(0.8,0,0,0.8,-2.5390625e-5,1.9382639e-4)"
     d="m 177.16535,138.18849 c 0,39.13829 -31.72785,70.86614 -70.86614,70.86614 -39.13829,0 -70.866143,-31.72785 -70.866143,-70.86614 0,-39.138288 31.727853,-70.86614 70.866143,-70.86614 39.13829,0 70.86614,31.727852 70.86614,70.86614 z"
     sodipodi:ry="70.866142"
     sodipodi:rx="70.866142"
     sodipodi:cy="138.18849"
     sodipodi:cx="106.29921"
     id="path3968"
     style="fill:#cccccc;stroke-linejoin:round"
     sodipodi:type="arc" /><path
     transform="matrix(0.8,0,0,0.8,-2.5390625e-5,1.9382639e-4)"
     inkscape:connector-curvature="0"
     id="path3970"
     d="m 88.582677,120.47195 35.433073,35.43307"
     style="fill:#cccccc;stroke:#000000;stroke-width:1px;stroke-linecap:butt;stroke-linejoin:miter;stroke-opacity:1" /><path
     transform="matrix(0.8,0,0,0.8,-2.5390625e-5,1.9382639e-4)"
     inkscape:connector-curvature="0"
     id="path3972"
     d="M 124.01575,120.47195 88.582677,155.90502"
     style="fill:#cccccc;stroke:#000000;stroke-width:1px;stroke-linecap:butt;stroke-linejoin:miter;stroke-opacity:1" /></g><g
   style="opacity:0.71078431;fill:#cccccc"
   transform="translate(645.7245,631.25903)"
   id="g3974"><path
     sodipodi:type="arc"
     style="fill:#cccccc;stroke-linejoin:round"
     id="path3976"
     sodipodi:cx="106.29921"
     sodipodi:cy="138.18849"
     sodipodi:rx="70.866142"
     sodipodi:ry="70.866142"
     d="m 177.16535,138.18849 c 0,39.13829 -31.72785,70.86614 -70.86614,70.86614 -39.13829,0 -70.866143,-31.72785 -70.866143,-70.86614 0,-39.138288 31.727853,-70.86614 70.866143,-70.86614 39.13829,0 70.86614,31.727852 70.86614,70.86614 z"
     transform="matrix(0.8,0,0,0.8,-2.5390625e-5,1.9382639e-4)" /><path
     style="fill:#cccccc;stroke:#000000;stroke-width:1px;stroke-linecap:butt;stroke-linejoin:miter;stroke-opacity:1"
     d="m 88.582677,120.47195 35.433073,35.43307"
     id="path3978"
     inkscape:connector-curvature="0"
     transform="matrix(0.8,0,0,0.8,-2.5390625e-5,1.9382639e-4)" /><path
     style="fill:#cccccc;stroke:#000000;stroke-width:1px;stroke-linecap:butt;stroke-linejoin:miter;stroke-opacity:1"
     d="M 124.01575,120.47195 88.582677,155.90502"
     id="path3980"
     inkscape:connector-curvature="0"
     transform="matrix(0.8,0,0,0.8,-2.5390625e-5,1.9382639e-4)" /></g><path
   transform="matrix(1.04,0,0,1.04,-153.07088,-156.47211)"
   d="m 992.12601,651.96802 a 354.33072,354.33072 0 1 1 -708.66144,0 354.33072,354.33072 0 1 1 708.66144,0 z"
   sodipodi:ry="354.33072"
   sodipodi:rx="354.33072"
   sodipodi:cy="651.96802"
   sodipodi:cx="637.79529"
   id="path4069"
   style="fill:none;stroke-linejoin:round;opacity:1"
   sodipodi:type="arc" /><path
   sodipodi:type="arc"
   style="fill:none;stroke-linejoin:round"
   id="path4071"
   sodipodi:cx="637.79529"
   sodipodi:cy="634.25146"
   sodipodi:rx="283.46457"
   sodipodi:ry="265.74802"
   d="m 921.25986,634.25146 a 283.46457,265.74802 0 1 1 -566.92914,0 283.46457,265.74802 0 1 1 566.92914,0 z"
   transform="matrix(0.8,0,0,0.85333338,-2.5390625e-5,-19.653339)" /></g>
</svg>