<?xml version="1.0" encoding="UTF-8" standalone="no"?>
<!-- Generator: Adobe Illustrator 9.0, SVG Export Plug-In  -->

<svg
   xmlns:dc="http://purl.org/dc/elements/1.1/"
   xmlns:cc="http://creativecommons.org/ns#"
   xmlns:rdf="http://www.w3.org/1999/02/22-rdf-syntax-ns#"
   xmlns:svg="http://www.w3.org/2000/svg"
   xmlns="http://www.w3.org/2000/svg"
   xmlns:sodipodi="http://sodipodi.sourceforge.net/DTD/sodipodi-0.dtd"
   xmlns:inkscape="http://www.inkscape.org/namespaces/inkscape"
   width="2834.6475"
   height="1396.0625"
   viewBox="0 0 2267.718 1116.85"
   xml:space="preserve"
   id="svg3804"
   sodipodi:version="0.32"
   inkscape:version="0.48.0 r9654"
   sodipodi:docname="led_cylinder_real_size_order.svg"
   inkscape:output_extension="org.inkscape.output.svg.inkscape"
   version="1.1"
   style="display:inline"><metadata
   id="metadata3848"><rdf:RDF><cc:Work
       rdf:about=""><dc:format>image/svg+xml</dc:format><dc:type
         rdf:resource="http://purl.org/dc/dcmitype/StillImage" /><dc:title /></cc:Work></rdf:RDF></metadata><defs
   id="defs3846">
		
		
		
		
		
		
		
	</defs><sodipodi:namedview
   inkscape:window-height="724"
   inkscape:window-width="1366"
   inkscape:pageshadow="2"
   inkscape:pageopacity="0.0"
   guidetolerance="10.0"
   gridtolerance="10.0"
   objecttolerance="10.0"
   borderopacity="1.0"
   bordercolor="#666666"
   pagecolor="#ffffff"
   id="base"
   inkscape:zoom="1"
   inkscape:cx="290.87675"
   inkscape:cy="889.91453"
   inkscape:window-x="0"
   inkscape:window-y="25"
   inkscape:current-layer="svg3804"
   showgrid="true"
   inkscape:document-units="mm"
   units="mm"
   inkscape:window-maximized="1"
   inkscape:snap-global="false"><inkscape:grid
     type="xygrid"
     id="grid2995"
     empspacing="1"
     visible="true"
     enabled="true"
     snapvisiblegridlinesonly="true"
     units="mm"
     spacingx="1mm"
     spacingy="1mm" /></sodipodi:namedview>
	<path
   inkscape:connector-curvature="0"
   id="path3807"
   d="M 2262.718,1117.0499 H -5.0000001 V 0.19988274 H 2262.718 V 1117.0499 z"
   style="fill:#f6921e;fill-rule:nonzero;stroke:none" /><path
   inkscape:connector-curvature="0"
   id="path3809"
   d="M 2248.543,1102.8779 H 9.1729999 V 14.372883 H 2248.543 V 1102.8769 z"
   style="fill:#ffffff;fill-rule:nonzero;stroke:none" /><path
   inkscape:connector-curvature="0"
   id="path4069"
   d="m 391.8504,25.71141 c -203.51911,0 -368.50001,165.00589 -368.50001,368.525 0,203.5191 164.9809,368.5 368.50001,368.5 l 0,-141.75 c -125.24253,0 -226.77501,-101.50748 -226.77501,-226.75 0,-125.24252 101.53248,-226.775 226.77501,-226.775 l 0,-141.75 z"
   style="fill:none;stroke:#0000ff;stroke-width:0.85039371;stroke-linejoin:round;stroke-miterlimit:4;stroke-opacity:1;stroke-dasharray:none" /><path
   sodipodi:type="arc"
   style="fill:none;stroke:#0000ff;stroke-linejoin:round;stroke-miterlimit:4;stroke-opacity:1"
   id="path4069-0"
   sodipodi:cx="637.79529"
   sodipodi:cy="651.96802"
   sodipodi:rx="354.33072"
   sodipodi:ry="354.33072"
   d="m 992.12601,651.96802 a 354.33072,354.33072 0 1 1 -708.66144,0 354.33072,354.33072 0 1 1 708.66144,0 z"
   transform="matrix(1.04,0,0,1.04,1174.2126,-283.83138)" /><path
   inkscape:connector-curvature="0"
   style="fill:none;stroke:#0000ff;stroke-width:0.85039371;stroke-linejoin:round;stroke-miterlimit:4;stroke-opacity:1;stroke-dasharray:none"
   d="m 193.42186,323.32815 c 203.5191,0 368.5,165.0059 368.5,368.525 0,203.51911 -164.9809,368.50005 -368.5,368.50005 l 0,-141.75004 c 125.24253,0 226.775,-101.50748 226.775,-226.75001 0,-125.24252 -101.53247,-226.775 -226.775,-226.775 l 0,-141.75 z"
   id="path3889" /><path
   id="path3891"
   d="m 887.9134,762.73643 c -203.5191,0 -368.50002,-165.0059 -368.50002,-368.525 0,-203.51911 164.98092,-368.50002 368.50002,-368.50002 l 0,141.75001 c -125.24253,0 -226.775,101.50748 -226.775,226.75001 0,125.2425 101.53247,226.775 226.775,226.775 l 0,141.75 z"
   style="fill:none;stroke:#0000ff;stroke-width:0.85039371;stroke-linejoin:round;stroke-miterlimit:4;stroke-opacity:1;stroke-dasharray:none"
   inkscape:connector-curvature="0" /><path
   inkscape:connector-curvature="0"
   style="fill:none;stroke:#0000ff;stroke-width:0.85039371;stroke-linejoin:round;stroke-miterlimit:4;stroke-opacity:1;stroke-dasharray:none"
   d="m 689.4882,323.33207 c 203.5191,0 368.5,165.0059 368.5,368.525 0,203.51911 -164.9809,368.50003 -368.5,368.50003 l 0,-141.75002 c 125.24253,0 226.775,-101.50748 226.775,-226.75001 0,-125.2425 -101.53247,-226.775 -226.775,-226.775 l 0,-141.75 z"
   id="path3893" /><path
   inkscape:connector-curvature="0"
   style="fill:none;stroke:#0000ff;stroke-width:0.85039371;stroke-linejoin:round;stroke-miterlimit:4;stroke-opacity:1;stroke-dasharray:none"
   d="m 1383.9797,762.74035 c -203.5191,0 -368.5,-165.0059 -368.5,-368.525 0,-203.51911 164.9809,-368.500021 368.5,-368.500021 l 0,141.750011 c -125.2425,0 -226.775,101.50748 -226.775,226.75001 0,125.2425 101.5325,226.775 226.775,226.775 l 0,141.75 z"
   id="path3895" /><path
   id="path3897"
   d="m 2206.0237,720.19961 c 0,203.5191 -165.0059,368.50009 -368.525,368.50009 -203.5191,0 -368.5,-164.98099 -368.5,-368.50009 l 141.75,0 c 0,125.2425 101.5075,226.775 226.75,226.775 125.2425,0 226.775,-101.5325 226.775,-226.775 l 141.75,0 z"
   style="fill:none;stroke:#0000ff;stroke-width:0.85039371;stroke-linejoin:round;stroke-miterlimit:4;stroke-opacity:1;stroke-dasharray:none"
   inkscape:connector-curvature="0" />
<g
   inkscape:groupmode="layer"
   id="layer2"
   inkscape:label="holes"
   style="display:inline"><path
     sodipodi:type="arc"
     style="fill:none;stroke:#0000ff;stroke-width:5.76658589;stroke-linejoin:round;stroke-miterlimit:4;stroke-opacity:1;stroke-dasharray:none;display:inline"
     id="path3939"
     sodipodi:cx="371.625"
     sodipodi:cy="148.9375"
     sodipodi:rx="13.875"
     sodipodi:ry="14.375"
     d="m 385.5,148.9375 a 13.875,14.375 0 1 1 -27.75,0 13.875,14.375 0 1 1 27.75,0 z"
     transform="matrix(0.15038388,0,0,0.14461098,290.1886,116.96199)"
     inkscape:transform-center-x="0.21785875"
     inkscape:transform-center-y="-1.4469776" /><path
     inkscape:transform-center-y="-1.4469776"
     inkscape:transform-center-x="0.21785875"
     transform="matrix(0.15038388,0,0,0.14461098,196.11789,155.69128)"
     d="m 385.5,148.9375 a 13.875,14.375 0 1 1 -27.75,0 13.875,14.375 0 1 1 27.75,0 z"
     sodipodi:ry="14.375"
     sodipodi:rx="13.875"
     sodipodi:cy="148.9375"
     sodipodi:cx="371.625"
     id="path4541"
     style="fill:none;stroke:#0000ff;stroke-width:5.76658589;stroke-linejoin:round;stroke-miterlimit:4;stroke-opacity:1;stroke-dasharray:none;display:inline"
     sodipodi:type="arc" /><path
     sodipodi:type="arc"
     style="fill:none;stroke:#0000ff;stroke-width:5.76658589;stroke-linejoin:round;stroke-miterlimit:4;stroke-opacity:1;stroke-dasharray:none;display:inline"
     id="path4543"
     sodipodi:cx="371.625"
     sodipodi:cy="148.9375"
     sodipodi:rx="13.875"
     sodipodi:ry="14.375"
     d="m 385.5,148.9375 a 13.875,14.375 0 1 1 -27.75,0 13.875,14.375 0 1 1 27.75,0 z"
     transform="matrix(0.15038388,0,0,0.14461098,124.13442,227.53333)"
     inkscape:transform-center-x="0.21785875"
     inkscape:transform-center-y="-1.4469776" /><path
     inkscape:transform-center-y="-1.4469776"
     inkscape:transform-center-x="0.21785875"
     transform="matrix(0.15038388,0,0,0.14461098,85.102128,321.50782)"
     d="m 385.5,148.9375 a 13.875,14.375 0 1 1 -27.75,0 13.875,14.375 0 1 1 27.75,0 z"
     sodipodi:ry="14.375"
     sodipodi:rx="13.875"
     sodipodi:cy="148.9375"
     sodipodi:cx="371.625"
     id="path4545"
     style="fill:none;stroke:#0000ff;stroke-width:5.76658589;stroke-linejoin:round;stroke-miterlimit:4;stroke-opacity:1;stroke-dasharray:none;display:inline"
     sodipodi:type="arc" /><path
     sodipodi:type="arc"
     style="fill:none;stroke:#0000ff;stroke-width:5.76658589;stroke-linejoin:round;stroke-miterlimit:4;stroke-opacity:1;stroke-dasharray:none;display:inline"
     id="path4547"
     sodipodi:cx="371.625"
     sodipodi:cy="148.9375"
     sodipodi:rx="13.875"
     sodipodi:ry="14.375"
     d="m 385.5,148.9375 a 13.875,14.375 0 1 1 -27.75,0 13.875,14.375 0 1 1 27.75,0 z"
     transform="matrix(0.15038388,0,0,0.14461098,85.172837,423.33119)"
     inkscape:transform-center-x="0.21785875"
     inkscape:transform-center-y="-1.4469776" /><path
     inkscape:transform-center-y="-1.4469776"
     inkscape:transform-center-x="0.21785875"
     transform="matrix(0.15038388,0,0,0.14461098,124.06371,517.44711)"
     d="m 385.5,148.9375 a 13.875,14.375 0 1 1 -27.75,0 13.875,14.375 0 1 1 27.75,0 z"
     sodipodi:ry="14.375"
     sodipodi:rx="13.875"
     sodipodi:cy="148.9375"
     sodipodi:cx="371.625"
     id="path4549"
     style="fill:none;stroke:#0000ff;stroke-width:5.76658589;stroke-linejoin:round;stroke-miterlimit:4;stroke-opacity:1;stroke-dasharray:none;display:inline"
     sodipodi:type="arc" /><path
     sodipodi:type="arc"
     style="fill:none;stroke:#0000ff;stroke-width:5.76658589;stroke-linejoin:round;stroke-miterlimit:4;stroke-opacity:1;stroke-dasharray:none;display:inline"
     id="path4551"
     sodipodi:cx="371.625"
     sodipodi:cy="148.9375"
     sodipodi:rx="13.875"
     sodipodi:ry="14.375"
     d="m 385.5,148.9375 a 13.875,14.375 0 1 1 -27.75,0 13.875,14.375 0 1 1 27.75,0 z"
     transform="matrix(0.15038388,0,0,0.14461098,196.15058,589.25906)"
     inkscape:transform-center-x="0.21785875"
     inkscape:transform-center-y="-1.4469776" /><path
     inkscape:transform-center-y="-1.4469776"
     inkscape:transform-center-x="0.21785875"
     transform="matrix(0.15038388,0,0,0.14461098,290.12705,627.98597)"
     d="m 385.5,148.9375 a 13.875,14.375 0 1 1 -27.75,0 13.875,14.375 0 1 1 27.75,0 z"
     sodipodi:ry="14.375"
     sodipodi:rx="13.875"
     sodipodi:cy="148.9375"
     sodipodi:cx="371.625"
     id="path4553"
     style="fill:none;stroke:#0000ff;stroke-width:5.76658589;stroke-linejoin:round;stroke-miterlimit:4;stroke-opacity:1;stroke-dasharray:none;display:inline"
     sodipodi:type="arc" /></g><g
   inkscape:groupmode="layer"
   id="layer1"
   inkscape:label="Layer"
   style="display:none"><path
     inkscape:connector-curvature="0"
     id="path3914"
     d="M 35.427156,465.90691 396.8504,394.01535"
     style="fill:none;stroke:#000000;stroke-width:1.01980388px;stroke-linecap:butt;stroke-linejoin:miter;stroke-opacity:1" /><path
     inkscape:connector-curvature="0"
     id="path3916"
     d="M 90.450572,598.74517 396.8504,394.01535"
     style="fill:none;stroke:#000000;stroke-width:1.01980388px;stroke-linecap:butt;stroke-linejoin:miter;stroke-opacity:1" /><path
     inkscape:connector-curvature="0"
     id="path3918"
     d="M 192.12058,700.41519 396.8504,394.01535"
     style="fill:none;stroke:#000000;stroke-width:1.01980388px;stroke-linecap:butt;stroke-linejoin:miter;stroke-opacity:1" /><path
     inkscape:connector-curvature="0"
     id="path3920"
     d="M 324.95885,755.43859 396.8504,394.01535"
     style="fill:none;stroke:#000000;stroke-width:1.01980388px;stroke-linecap:butt;stroke-linejoin:miter;stroke-opacity:1" /><path
     inkscape:connector-curvature="0"
     id="path3922"
     d="M 35.427156,322.12379 396.8504,394.01535"
     style="fill:none;stroke:#000000;stroke-width:1.01980388px;stroke-linecap:butt;stroke-linejoin:miter;stroke-opacity:1" /><path
     inkscape:connector-curvature="0"
     id="path3924"
     d="M 90.450572,189.28553 396.8504,394.01535"
     style="fill:none;stroke:#000000;stroke-width:1.01980388px;stroke-linecap:butt;stroke-linejoin:miter;stroke-opacity:1" /><path
     inkscape:connector-curvature="0"
     id="path3926"
     d="M 192.12058,87.615512 396.8504,394.01535"
     style="fill:none;stroke:#000000;stroke-width:1.01980388px;stroke-linecap:butt;stroke-linejoin:miter;stroke-opacity:1" /><path
     inkscape:connector-curvature="0"
     id="path3928"
     d="M 324.95885,32.592112 396.8504,394.01535"
     style="fill:none;stroke:#000000;stroke-width:1.01980388px;stroke-linecap:butt;stroke-linejoin:miter;stroke-opacity:1" /><path
     sodipodi:type="arc"
     style="fill:none;stroke:#0000ff;stroke-linejoin:round;stroke-opacity:1"
     id="path3934"
     sodipodi:cx="469.48819"
     sodipodi:cy="465.9444"
     sodipodi:rx="292.32285"
     sodipodi:ry="292.32285"
     d="M 511.34779,755.25465 A 292.32285,292.32285 0 1 1 498.16113,175.03117 L 469.48819,465.9444 z"
     transform="matrix(0.88969192,0,0,0.89061838,-21.559582,-20.955545)"
     sodipodi:start="1.4271059"
     sodipodi:end="4.8106335" /></g></svg>